<svg width="100" height="100" version="1.1" viewBox="0 0 26.458 26.458" xmlns="http://www.w3.org/2000/svg">
 <g>
  <g transform="matrix(2.5772 .13421 -.13421 2.5772 24.208 95.819)" fill="#666" style="shape-inside:url(#rect12);white-space:pre" aria-label="">
   <path d="m-9.5508-35.356q1.5089-1.5089 3.638-1.5089 2.1291 0 3.6173 1.5089 1.5089 1.4883 1.5089 3.6173 0 2.1291-1.5089 3.638-1.4883 1.4883-3.6173 1.4883-2.1291 0-3.638-1.4883-1.4883-1.5089-1.4883-3.638 0-2.1291 1.4883-3.6173zm0.7028 6.5526q1.2196 1.1989 2.9352 1.1989t2.9145-1.1989q1.2196-1.2196 1.2196-2.9352t-1.2196-2.9145q-1.1989-1.2196-2.9145-1.2196t-2.9352 1.2196q-1.1989 1.1989-1.1989 2.9145t1.1989 2.9352zm1.7363-3.452q-0.18603 0.18604-0.45475 0.18604t-0.47542-0.18604q-0.18603-0.2067-0.18603-0.47542 0-0.26872 0.18603-0.45475 0.20671-0.2067 0.47542-0.2067t0.45475 0.2067q0.20671 0.18604 0.20671 0.45475 0 0.26872-0.20671 0.47542zm3.3073 0q-0.18603 0.18604-0.45475 0.18604t-0.47542-0.18604q-0.18603-0.2067-0.18603-0.47542 0-0.26872 0.18603-0.45475 0.2067-0.2067 0.47542-0.2067t0.45475 0.2067q0.20671 0.18604 0.20671 0.45475 0 0.26872-0.20671 0.47542zm-0.37207 1.695q0.12402-0.16536 0.33073-0.18604 0.2067-0.02067 0.3514 0.12402 0.16536 0.12402 0.18603 0.33073 0.02067 0.2067-0.10335 0.3514-0.97151 1.1782-2.5011 1.1782-1.5296 0-2.5011-1.1782-0.12402-0.14469-0.10335-0.3514 0.02067-0.2067 0.16536-0.33073 0.16536-0.14469 0.37207-0.12402 0.2067 0.02067 0.33073 0.18604 0.68213 0.80615 1.7363 0.80615 1.0542 0 1.7363-0.80615z" fill="#666"/>
  </g>
 </g>
</svg>
