<svg width="100" height="100" version="1.1" viewBox="0 0 26.458 26.458" xmlns="http://www.w3.org/2000/svg">
 <g>
  <g fill="#666" stroke-width=".66146" aria-label="">
   <path d="m26.355 9.5602t0.05168 0.36173h-12.351v-9.9219h7.2864q0.56844 0 1.0335 0.20671 0.46509 0.20671 0.82682 0.62012 0.36173 0.36173 0.51676 0.8785zm-13.953-9.5601v9.9219h-12.351q0.051676-0.36173 0.051676-0.36173l2.6355-7.8548q0.25838-0.77515 0.8785-1.2402 0.67179-0.46509 1.4986-0.46509zm-12.402 11.576h26.458v12.402q0 1.0335-0.72347 1.757-0.72347 0.72347-1.757 0.72347h-21.497q-1.0335 0-1.757-0.72347-0.72347-0.72347-0.72347-1.757z" fill="#666" stroke-width=".66146"/>
  </g>
 </g>
</svg>
