<svg width="100" height="100" version="1.1" viewBox="0 0 26.458 26.458" xmlns="http://www.w3.org/2000/svg">
 <g>
  <g transform="scale(1.069 .93541)" fill="#4d4d4d" stroke-width=".70713" aria-label="ï³">
   <path d="m8.1762 15.91h-2.2098q-0.66293 0-0.66293-0.66294v-2.2098q0-0.66293 0.66293-0.66293h2.2098q0.66293 0 0.66293 0.66293v2.2098q0 0.66294-0.66293 0.66294zm5.9664-0.66294q0 0.66294-0.66293 0.66294h-2.2098q-0.66293 0-0.66293-0.66294v-2.2098q0-0.66293 0.66293-0.66293h2.2098q0.66293 0 0.66293 0.66293zm5.3035 0q0 0.66294-0.66293 0.66294h-2.2098q-0.66293 0-0.66293-0.66294v-2.2098q0-0.66293 0.66293-0.66293h2.2098q0.66293 0 0.66293 0.66293zm-5.3035 5.3035q0 0.66294-0.66293 0.66294h-2.2098q-0.66293 0-0.66293-0.66294v-2.2098q0-0.66293 0.66293-0.66293h2.2098q0.66293 0 0.66293 0.66293zm-5.3035 0q0 0.66294-0.66293 0.66294h-2.2098q-0.66293 0-0.66293-0.66294v-2.2098q0-0.66293 0.66293-0.66293h2.2098q0.66293 0 0.66293 0.66293zm10.607 0q0 0.66294-0.66293 0.66294h-2.2098q-0.66293 0-0.66293-0.66294v-2.2098q0-0.66293 0.66293-0.66293h2.2098q0.66293 0 0.66293 0.66293zm5.3035-14.364v19.446q0 1.1049-0.77342 1.8783-0.77342 0.77342-1.8783 0.77342h-19.446q-1.1049 0-1.8783-0.77342-0.77342-0.77342-0.77342-1.8783v-19.446q0-1.1049 0.77342-1.8783 0.77342-0.77342 1.8783-0.77342h2.6517v-2.8727q0-0.66293 0.66293-0.66293h2.2098q0.66293 0 0.66293 0.66293v2.8727h7.0713v-2.8727q0-0.66293 0.66293-0.66293h2.2098q0.66293 0 0.66293 0.66293v2.8727h2.6517q1.1049 0 1.8783 0.77342 0.77342 0.77342 0.77342 1.8783zm-2.6517 19.115v-16.463h-19.446v16.463q0 0.33147 0.33147 0.33147h18.783q0.33147 0 0.33147-0.33147z" fill="#4d4d4d" stroke-width=".70713"/>
  </g>
  <path transform="scale(.26458)" d="m6.9972 98.984c-1.2379-0.39801-3.1471-1.659-4.2426-2.8022l-1.9918-2.0786-0.19477-37.355-0.19477-37.355 1.9295-2.2931c2.7821-3.3063 5.5874-4.2221 12.933-4.2221h6.3867v-5.5703c0-3.9217 0.29407-5.8143 0.99363-6.3949 0.62356-0.51751 3.0596-0.74727 6.5407-0.61691l5.5471 0.20773 0.20431 6.1872 0.20431 6.1872h29.643v-5.9348c0-6.864-0.07005-6.7932 6.7175-6.7932 6.7876 0 6.7175-0.070842 6.7175 6.7932v5.9348h6.7457c5.3612 0 7.3174 0.29167 9.5314 1.4212 5.0919 2.5977 4.9362 1.2613 4.9362 42.36v36.78l-2.1795 2.4823c-1.2226 1.3925-3.3181 2.7986-4.773 3.2026-3.5161 0.9766-82.383 0.84758-85.454-0.1398zm82.507-38.023v-29.698h-79.196v59.397h79.196z" fill="#808080" stroke-width="0"/>
 </g>
</svg>
