<svg width="100" height="100" version="1.1" viewBox="0 0 26.458 26.458" xmlns="http://www.w3.org/2000/svg"><path d="M17.997 5.174q2.557 1.537 3.713 4.124 1.208 2.584.768 5.349-.388 2.762-2.309 4.87-.665.73-1.646.776-.982.046-1.712-.619l-2.163-1.97q-1.027-.936-2.356-.563t-1.706 1.71q-.284 1.127-1.35 1.59-1.09.491-2.051-.137-1.443-.968-2.332-2.816-.89-1.849-.986-3.915t.862-4.26q1.01-2.195 3.012-3.687 2.227-1.63 5.044-1.736 2.841-.133 5.212 1.284zM6.92 10.22q.05.49.4.81.352.32.817.299.517-.025.837-.376.32-.351.271-.841.003-.492-.349-.812-.351-.32-.868-.296-.465.022-.785.373t-.323.843zm4.017-2.672q.049.49.4.81.352.32.817.298.517-.024.837-.375.32-.352.271-.841.003-.492-.349-.813-.351-.32-.868-.296-.465.022-.785.374-.32.351-.323.843zm5.037 1.422q.049.49.4.81.352.32.817.298.516-.024.836-.375.32-.352.272-.841.003-.492-.349-.813-.351-.32-.868-.296-.465.022-.785.373-.32.352-.323.844zm1.885 4.882q.049.49.4.81t.817.298q.516-.024.837-.375.32-.352.27-.841.004-.492-.348-.812t-.868-.296q-.465.021-.785.373-.32.351-.323.843z" fill="#666" stroke-width=".468" aria-label=""/></svg>