<svg width="100" height="100" version="1.1" viewBox="0 0 26.458 26.458" xmlns="http://www.w3.org/2000/svg">
 <g>
  <g fill="#4d4d4d" stroke-width=".66146" aria-label="">
   <path d="m25.683 18.707q0.77515 0.31006 0.77515 1.1369 0 0.15503-0.05168 0.25838l-1.2402 5.3743q-0.2067 0.98185-1.1886 0.98185-9.9219 0-16.95-7.028-7.028-7.028-7.028-16.95 0-0.98185 0.98185-1.1886l5.3743-1.2402q0.10335-0.051676 0.25838-0.051676 0.82682 0 1.1369 0.77515l2.4805 5.7878q0.10335 0.20671 0.10335 0.46509 0 0.56844-0.46509 0.98185l-3.1006 2.5321q2.8939 6.2528 9.1467 9.1467l2.5321-3.1006q0.41341-0.46509 0.98185-0.46509 0.25838 0 0.46509 0.10335z" fill="#4d4d4d" stroke-width=".66146"/>
  </g>
 </g>
</svg>
