<svg width="100" height="100" version="1.1" viewBox="0 0 26.458 26.458" xmlns="http://www.w3.org/2000/svg">
 <g>
  <text transform="matrix(2.2222 0 0 3.3333 123.47 -7.0551)" fill="#b3b3b3" font-family="'Font Awesome 5 Free'" font-size="10.583px" stroke-width=".36742" style="line-height:1.25;shape-inside:url(#rect913);white-space:pre" xml:space="preserve"><tspan x="-55.5625" y="10.054003"><tspan fill="#b3b3b3" stroke-width=".36742"></tspan></tspan></text>
  <path transform="scale(.26458)" d="m6.7563 98.971c-1.234-0.49613-3.1584-2.3801-4.2764-4.1866-1.9041-3.0767-2.0153-4.6452-1.7563-24.785l0.27643-21.5 9.8609-22c5.4235-12.1 10.723-22.9 11.778-24 1.8185-1.8974 3.2225-2 27.361-2s25.543 0.10263 27.361 2c1.0543 1.1 6.3543 11.9 11.778 24l9.8609 22 0.27643 21.5c0.25869 20.12 0.14631 21.71-1.7505 24.775-1.1148 1.8012-3.181 3.7137-4.5915 4.25-3.2565 1.2381-83.089 1.1883-86.178-0.05375zm56.1-40.471 2.7681-8.5h21.69l-15.148-34h-44.366l-7.1677 16.25c-3.9422 8.9375-7.1596 16.588-7.1498 17 0.0098 0.4125 4.7149 0.75 10.456 0.75h10.438l5.5363 17h20.176z" fill="#d40000" stroke-width="0"/>
 </g>
</svg>
