<svg  version="1.1" viewBox="0 0 100 100" xmlns="http://www.w3.org/2000/svg">
 
   <path d="m25.735 7.3328-2.3754 2.3754q-0.46476 0.46476-0.87788 0l-5.732-5.732q-0.46476-0.41312 0-0.87788l2.3754-2.3754q0.72296-0.72296 1.7558-0.72296t1.7558 0.72296l3.0984 3.0984q0.72296 0.72296 0.72296 1.7558t-0.72296 1.7558zm-11.051-2.1689q0.46476-0.46476 0.87788 0l5.732 5.732q0.46476 0.41312 0 0.87788l-13.53 13.53-6.3001 1.1361q-0.61968 0.10328-1.0844-0.36148-0.46476-0.46476-0.36148-1.0844l1.1361-6.3001zm-8.2624 11.361q-0.5164 0.5164 0 1.0328 0.5164 0.5164 1.0328 0l7.9525-7.9525q0.5164-0.5164 0-1.0328-0.5164-0.5164-1.0328 0zm-1.859 5.3705v-2.4787h-1.859l-0.61968 3.305 1.6525 1.6525 3.305-0.61968v-1.859z" stroke-width=".66099"/>
  
</svg>
