<svg  version="1.1" viewBox="0 0 100 100" xmlns="http://www.w3.org/2000/svg">
 
   <path d="m21.071 5.3877q-3.2539-3.2539-7.8415-3.2539-4.5875 0-7.8415 3.2539-3.2539 3.2539-3.2539 7.8415t3.2539 7.8415 7.8415 3.2539q4.5875 0 7.8415-3.2539t3.2539-7.8415-3.2539-7.8415zm-17.23-1.4936q3.8941-3.8941 9.3884-3.8941 5.4944 0 9.3351 3.8941 3.8941 3.8407 3.8941 9.3351 0 5.4944-3.8941 9.3884-3.8407 3.8407-9.3351 3.8407-5.4944 0-9.3884-3.8407-3.8407-3.8941-3.8407-9.3884 0-5.4944 3.8407-9.3351zm2.1337 2.0804q2.9872-2.9872 7.2547-2.9872 4.2675 0 7.2547 2.9872t2.9872 7.2547q0 4.2675-2.9872 7.2547t-7.2547 2.9872q-4.2675 0-7.2547-2.9872-2.9872-2.9872-2.9872-7.2547 0-4.2675 2.9872-7.2547zm8.5883-0.053343q-0.53343-0.58678-1.3336-0.58678-0.80015 0-1.3869 0.58678-0.53343 0.53343-0.53343 1.3336t0.53343 1.3869q0.58678 0.53343 1.3869 0.53343 0.80015 0 1.3336-0.53343 0.58678-0.58678 0.58678-1.3869t-0.58678-1.3336zm4.9609 4.6409q0.32006-0.05334 0.48009-0.3734 0.21337-0.32006 0.10669-0.64012-0.05334-0.3734-0.3734-0.53343-0.26672-0.21337-0.64012-0.10669-3.8407 0.90684-5.8678 0.90684t-5.8678-0.90684q-0.3734-0.10669-0.69346 0.10669-0.26672 0.16003-0.3734 0.53343-0.053343 0.32006 0.10669 0.64012 0.21337 0.26672 0.53343 0.3734 2.8272 0.64012 4.3742 0.85349 0 2.5071-0.26672 4.2675-0.21337 1.707-0.3734 2.2404-0.16003 0.48009-0.69346 1.7603-0.10669 0.3734 0.053344 0.74681 0.16003 0.3734 0.53343 0.53343 0.3734 0.10669 0.69346-0.05334 0.3734-0.16003 0.53343-0.48009 0.96018-2.4538 1.1736-4.2141h0.53343q0.21337 1.7603 1.1736 4.2141 0.16003 0.32006 0.48009 0.48009 0.3734 0.16003 0.74681 0.05334 0.3734-0.16003 0.53343-0.53343 0.16003-0.3734 0.05334-0.74681-0.53343-1.2802-0.69346-1.7603-0.16003-0.53343-0.42675-2.2404-0.21337-1.7603-0.21337-4.2675 1.547-0.21337 4.3742-0.85349z" stroke-width=".68279"/>
 
</svg>
