<svg width="100" height="100" version="1.1" viewBox="0 0 26.458 26.458" xmlns="http://www.w3.org/2000/svg">
 <g>
  <g transform="scale(.88192 1.1339)" stroke-width=".66669" aria-label="">
   <path d="m14.584 6.0419q0.20834-0.10417 0.41668-0.10417 0.20834 0 0.41668 0.10417l9.5836 7.9169v8.5419q0 0.36459-0.26042 0.57293-0.20834 0.26042-0.57294 0.26042h-5.8335q-0.3646 0-0.62502-0.26042-0.20834-0.26042-0.20834-0.57293v-5.0002q0-0.36459-0.26042-0.57293-0.20834-0.26042-0.57294-0.26042h-3.3334q-0.3646 0-0.62502 0.26042-0.20834 0.20834-0.20834 0.57293v5.0002q0 0.20834-0.10417 0.36459-0.10417 0.20834-0.31251 0.31251-0.20834 0.15626-0.41668 0.15626h-5.8335q-0.36459 0-0.62502-0.26042-0.20834-0.20834-0.20834-0.57293v-8.5419zm15.209 5.3648q0.20834 0.20834 0.20834 0.52085 0 0.20834-0.15626 0.36459l-1.3021 1.6146q-0.20834 0.26042-0.46876 0.26042-0.26042 0-0.41668-0.15626l-12.24-10.104q-0.20834-0.10417-0.41668-0.10417-0.20834 0-0.41668 0.10417l-12.24 10.104q-0.15625 0.15626-0.36459 0.15626-0.31251 0-0.52085-0.26042l-1.3021-1.6146q-0.15625-0.15626-0.15625-0.36459 0-0.31251 0.20834-0.52085l13.177-10.834q0.72919-0.57293 1.6146-0.57293 0.88544 0 1.5625 0.57293l4.6876 3.8543v-3.8022q0-0.26042 0.15626-0.41668 0.20834-0.20834 0.46876-0.20834h2.9168q0.26042 0 0.41668 0.20834 0.20834 0.15625 0.20834 0.41668v7.2398z" stroke-width=".66669"/>
  </g>
 </g>
</svg>
