<svg width="100" height="100" version="1.1" viewBox="0 0 26.458 26.458" xmlns="http://www.w3.org/2000/svg">
 <g transform="matrix(1 0 0 .99997 .00018004 .00052238)" fill="#808080" image-rendering="optimizeQuality">
  <g transform="scale(1.2634 .7915)" fill="#808080" stroke-width=".83571" aria-label="">
   <g shape-rendering="auto">
    <path d="m19.342 10.446c0.60937 0 1.0664 0.26116 1.3711 0.78348 0.30469 0.52232 0.30469 1.0447 0 1.567l-11.491 19.848c-0.30469 0.52232-0.76172 0.78348-1.3711 0.78348-0.52232 0-0.93582-0.19587-1.2405-0.58761s-0.39173-0.84877-0.26116-1.3711l3.0033-12.666h-7.7695c-0.30469 0-0.58761-0.08705-0.84877-0.26116-0.26116-0.17411-0.45703-0.39174-0.58761-0.6529s-0.17411-0.54408-0.13058-0.84876l2.0893-15.67c0.043527-0.26116 0.13058-0.50056 0.26116-0.71819 0.17411-0.21763 0.36998-0.36998 0.58761-0.45703 0.21763-0.13058 0.45703-0.19587 0.71819-0.19587h9.4017c0.52232 0 0.93582 0.21763 1.2405 0.6529 0.30469 0.39174 0.39174 0.82701 0.26116 1.3058l-2.7422 8.4877z" color="#000000" color-rendering="auto" dominant-baseline="auto" fill="#808080" image-rendering="auto" solid-color="#000000" stop-color="#000000" style="font-feature-settings:normal;font-variant-alternates:normal;font-variant-caps:normal;font-variant-east-asian:normal;font-variant-ligatures:normal;font-variant-numeric:normal;font-variant-position:normal;font-variation-settings:normal;inline-size:0;isolation:auto;mix-blend-mode:normal;shape-margin:0;shape-padding:0;text-decoration-color:#000000;text-decoration-line:none;text-decoration-style:solid;text-indent:0;text-orientation:mixed;text-transform:none;white-space:normal"/>
    <path d="m3.6719-0.41797c-0.31977 0-0.62631 0.088464-0.90039 0.24609-0.28008 0.11913-0.52792 0.30932-0.73047 0.5625l-0.017578 0.023438-0.015625 0.023438c-0.15798 0.2633-0.26288 0.55385-0.31445 0.86328l-0.0019532 0.0078126-2.0898 15.672c-9.423e-5 6.59e-4 9.356e-5 0.001293 0 0.001953v0.001953c-0.053207 0.37782 0.0045059 0.75706 0.17188 1.0918 0.1638 0.3276 0.41387 0.60469 0.72852 0.81445 0.32356 0.21571 0.69775 0.33008 1.082 0.33008h7.2402l-2.8809 12.15v0.001953c-0.15282 0.61835-0.038571 1.2406 0.33789 1.7246 0.37572 0.48308 0.94353 0.74805 1.5703 0.74805 0.72877 0 1.3666-0.36319 1.7324-0.99023v-0.001953l11.49-19.846v-0.001953c0.36477-0.62669 0.36544-1.3599 0-1.9863-0.36578-0.62704-1.0037-0.99219-1.7324-0.99219h-6.9336l2.5684-7.9492 0.001954-0.0097656c0.15896-0.58287 0.03596-1.1838-0.33203-1.6621-0.36926-0.52099-0.93794-0.82422-1.5723-0.82422h-9.4023zm0 0.83594h9.4023c0.40625 0 0.65809 0.13124 0.89844 0.47461l0.00586 0.0078125 0.005859 0.0078125c0.23628 0.30378 0.28876 0.56816 0.1875 0.93945l-2.9121 9.0156h8.082c0.48999 0 0.76616 0.15858 1.0098 0.57617 0.2436 0.41759 0.2436 0.72886 0 1.1465l-11.49 19.848c-0.2436 0.41759-0.51977 0.57617-1.0098 0.57617-0.41786 0-0.67847-0.12538-0.91211-0.42578-0.23167-0.29786-0.29161-0.58937-0.18555-1.0137l0.0019532-0.001953 3.125-13.184h-8.2969c-0.2251 0-0.41843-0.056949-0.61719-0.18945-0.20767-0.13845-0.34991-0.29747-0.44727-0.49219-0.093207-0.18641-0.12273-0.3733-0.089844-0.60352v-0.001953l2.0879-15.658c0.033536-0.20121 0.10137-0.37689 0.19531-0.54102 0.13142-0.15803 0.26134-0.2604 0.39648-0.31445l0.03125-0.013672 0.029297-0.017578c0.1544-0.092642 0.31044-0.13477 0.50195-0.13477z" color="#000000" color-rendering="auto" dominant-baseline="auto" image-rendering="auto" solid-color="#000000" stop-color="#000000" style="font-feature-settings:normal;font-variant-alternates:normal;font-variant-caps:normal;font-variant-east-asian:normal;font-variant-ligatures:normal;font-variant-numeric:normal;font-variant-position:normal;font-variation-settings:normal;inline-size:0;isolation:auto;mix-blend-mode:normal;shape-margin:0;shape-padding:0;text-decoration-color:#000000;text-decoration-line:none;text-decoration-style:solid;text-indent:0;text-orientation:mixed;text-transform:none;white-space:normal"/>
   </g>
  </g>
 </g>
</svg>
