<svg width="100" height="100" version="1.1" viewBox="0 0 26.458 26.458" xmlns="http://www.w3.org/2000/svg">
 <g>
  <g transform="scale(.94281 1.0607)" fill="#999" stroke-width=".62363" aria-label="">
   <path d="m26.894 3.1181q0.48721 0 0.82826 0.34105 0.34105 0.34105 0.34105 0.82826v2.7284q0 2.7284-3.0207 4.9208-2.3386 1.6565-5.3593 1.9976-1.5104 2.5335-3.313 3.6054v3.5079h2.3386q1.3155 0 2.1924 0.73082 0.9257 0.73082 0.9257 1.9976v0.58465q0 0.58465-0.58465 0.58465h-14.421q-0.58465 0-0.58465-0.58465v-0.58465q0-1.2667 0.87698-1.9976 0.9257-0.73082 2.2412-0.73082h2.3386v-3.5079q-0.19488-0.097442-0.53593-0.34105-0.34105-0.2436-1.218-1.1693-0.87698-0.9257-1.5591-2.095-3.0207-0.34105-5.3593-1.9976-3.0207-2.1924-3.0207-4.9208v-2.7284q0-0.48721 0.34105-0.82826 0.34105-0.34105 0.82826-0.34105h5.067v-1.9488q0-0.48721 0.34105-0.82826 0.34105-0.34105 0.82826-0.34105h13.252q0.48721 0 0.82826 0.34105 0.34105 0.34105 0.34105 0.82826v1.9488zm-22.071 6.285q0.9257 0.63337 2.0463 1.0231-0.53593-1.9976-0.63337-4.19h-3.1182v0.77954q0 1.1206 1.7052 2.3873zm20.122-2.3873v-0.77954h-3.1182q-0.097442 2.1924-0.63337 4.19 1.1206-0.38977 2.0463-1.0231 1.7052-1.2667 1.7052-2.3873z" fill="#999" stroke-width=".62363"/>
  </g>
 </g>
</svg>
