<?xml version="1.0" standalone="no"?>
<!DOCTYPE svg PUBLIC "-//W3C//DTD SVG 20010904//EN"
 "http://www.w3.org/TR/2001/REC-SVG-20010904/DTD/svg10.dtd">
<svg version="1.0" xmlns="http://www.w3.org/2000/svg"
 width="3125.000000pt" height="3125.000000pt" viewBox="0 0 3125.000000 3125.000000"
 preserveAspectRatio="xMidYMid meet">
<metadata>
Created by potrace 1.14, written by Peter Selinger 2001-2017
</metadata>
<g transform="translate(0.000000,3125.000000) scale(0.100000,-0.100000)"
fill="#000000" stroke="none">
<path d="M15015 31239 c-2326 -83 -4427 -606 -6370 -1584 -480 -242 -866 -460
-1310 -743 -1717 -1092 -3361 -2654 -4567 -4342 -993 -1391 -1740 -2948 -2191
-4570 -685 -2462 -763 -5313 -216 -7876 297 -1393 805 -2765 1481 -3999 833
-1520 1968 -2954 3263 -4124 1803 -1628 3827 -2766 6040 -3396 2445 -696 5252
-796 7807 -279 3167 640 5949 2260 8280 4822 1820 2000 3023 4259 3607 6772
382 1647 500 3477 341 5260 -292 3254 -1519 6109 -3685 8575 -430 489 -1071
1139 -1565 1585 -2636 2382 -5723 3672 -9285 3880 -506 29 -1137 37 -1630 19z
m1160 -2519 c2877 -112 5361 -1030 7550 -2789 790 -635 1571 -1416 2210 -2211
1863 -2317 2795 -5015 2795 -8095 0 -3080 -931 -5777 -2795 -8095 -541 -673
-1196 -1349 -1865 -1925 -2389 -2055 -5208 -3084 -8450 -3085 -2893 0 -5461
828 -7680 2478 -952 708 -1881 1604 -2627 2534 -1866 2326 -2793 5011 -2793
8093 0 3084 929 5774 2799 8100 632 787 1427 1581 2213 2212 2081 1670 4441
2583 7139 2763 423 29 1068 37 1504 20z"/>
<path d="M15040 27710 c-1331 -63 -2512 -292 -3660 -710 -1272 -463 -2489
-1182 -3565 -2105 -495 -425 -1023 -952 -1456 -1455 -1637 -1902 -2580 -4168
-2784 -6690 -34 -427 -39 -579 -39 -1125 0 -648 17 -978 79 -1525 237 -2093
978 -3971 2224 -5640 544 -729 1233 -1463 1966 -2096 1897 -1637 4173 -2585
6695 -2789 426 -34 579 -39 1120 -40 545 0 729 7 1135 41 2516 210 4715 1117
6625 2732 685 579 1353 1276 1901 1982 1624 2091 2439 4543 2439 7335 0 3320
-1145 6140 -3444 8482 -1797 1831 -3897 2967 -6302 3407 -469 86 -963 146
-1507 182 -274 18 -1154 26 -1427 14z m960 -10 c475 -16 860 -45 1260 -96
2232 -284 4104 -1077 5865 -2483 366 -292 602 -509 1085 -997 574 -580 845
-889 1196 -1364 750 -1012 1297 -2055 1679 -3203 263 -790 464 -1713 549
-2527 74 -697 74 -2113 0 -2810 -88 -842 -301 -1805 -579 -2618 -462 -1353
-1199 -2633 -2159 -3747 -432 -502 -1006 -1079 -1455 -1463 -1875 -1608 -4002
-2524 -6451 -2777 -664 -68 -1767 -85 -2355 -36 -754 63 -1379 162 -2034 322
-2201 536 -4108 1677 -5812 3475 -555 586 -893 1009 -1324 1659 -981 1479
-1577 3092 -1819 4925 -67 508 -79 766 -79 1665 0 899 12 1157 79 1665 224
1695 766 3237 1627 4630 297 480 724 1071 1001 1385 492 558 1290 1355 1701
1700 365 305 875 672 1340 961 581 361 1262 705 1841 930 1245 483 2662 763
4069 804 379 10 445 10 775 0z"/>
<path d="M15298 24933 c12 -2 30 -2 40 0 9 3 -1 5 -23 4 -22 0 -30 -2 -17 -4z"/>
<path d="M15913 24933 c9 -2 25 -2 35 0 9 3 1 5 -18 5 -19 0 -27 -2 -17 -5z"/>
<path d="M15128 24914 c-266 -48 -619 -214 -888 -417 -110 -84 -344 -313 -413
-407 l-49 -65 44 50 c399 460 827 725 1336 829 124 26 100 34 -30 10z"/>
<path d="M16085 24905 c270 -58 488 -148 701 -291 141 -94 225 -166 416 -358
188 -187 269 -281 361 -421 62 -95 78 -116 57 -75 -28 54 -136 210 -208 300
-351 438 -861 770 -1311 854 -128 24 -140 17 -16 -9z"/>
<path d="M15345 24910 c-207 -18 -378 -66 -596 -166 -302 -138 -507 -275 -718
-479 -364 -352 -584 -807 -641 -1323 -16 -142 -8 -480 15 -622 63 -397 206
-748 422 -1038 73 -97 245 -276 342 -354 278 -224 641 -392 981 -454 190 -35
773 -28 982 12 198 38 473 149 662 268 290 183 572 473 754 776 147 243 256
525 292 754 33 213 31 602 -5 814 -81 471 -420 992 -890 1367 -283 226 -637
390 -940 435 -92 14 -545 21 -660 10z"/>
<path d="M13759 24003 c-13 -16 -12 -17 4 -4 16 13 21 21 13 21 -2 0 -10 -8
-17 -17z"/>
<path d="M13610 23770 c-6 -11 -8 -20 -6 -20 3 0 10 9 16 20 6 11 8 20 6 20
-3 0 -10 -9 -16 -20z"/>
<path d="M17679 23633 c88 -177 145 -351 182 -558 9 -55 18 -86 18 -69 2 60
-29 210 -69 335 -36 112 -160 389 -175 389 -3 0 17 -44 44 -97z"/>
<path d="M13547 23645 c-24 -50 -20 -58 4 -12 11 22 19 41 17 43 -3 2 -12 -12
-21 -31z"/>
<path d="M13512 23565 c-17 -37 -14 -45 4 -12 9 16 14 31 11 33 -2 2 -9 -7
-15 -21z"/>
<path d="M13451 23396 c-39 -123 -72 -266 -70 -310 0 -11 11 32 25 97 13 66
40 167 59 225 19 58 32 108 30 110 -2 2 -22 -53 -44 -122z"/>
<path d="M13372 23030 c0 -19 2 -27 5 -17 2 9 2 25 0 35 -3 9 -5 1 -5 -18z"/>
<path d="M13363 22935 c0 -22 2 -30 4 -17 2 12 2 30 0 40 -3 9 -5 -1 -4 -23z"/>
<path d="M17883 22930 c0 -25 2 -35 4 -22 2 12 2 32 0 45 -2 12 -4 2 -4 -23z"/>
<path d="M13354 22705 c0 -77 2 -107 3 -67 2 40 2 103 0 140 -2 37 -3 4 -3
-73z"/>
<path d="M17893 22760 c0 -36 2 -50 4 -32 2 17 2 47 0 65 -2 17 -4 3 -4 -33z"/>
<path d="M17882 22445 c0 -16 2 -22 5 -12 2 9 2 23 0 30 -3 6 -5 -1 -5 -18z"/>
<path d="M13363 22425 c0 -22 2 -30 4 -17 2 12 2 30 0 40 -3 9 -5 -1 -4 -23z"/>
<path d="M17872 22355 c0 -16 2 -22 5 -12 2 9 2 23 0 30 -3 6 -5 -1 -5 -18z"/>
<path d="M13376 22300 c32 -382 265 -890 544 -1190 39 -41 34 -34 -18 30 -273
335 -432 682 -512 1119 -16 84 -19 92 -14 41z"/>
<path d="M17862 22285 c0 -16 2 -22 5 -12 2 9 2 23 0 30 -3 6 -5 -1 -5 -18z"/>
<path d="M17850 22232 c0 -42 -61 -257 -105 -369 -122 -312 -314 -595 -575
-847 -293 -283 -625 -462 -1021 -550 -75 -17 -95 -24 -59 -20 81 7 240 51 370
101 560 215 1054 707 1283 1278 66 165 131 405 113 422 -3 3 -6 -3 -6 -15z"/>
<path d="M14000 21027 c0 -2 15 -16 33 -33 l32 -29 -29 33 c-28 30 -36 37 -36
29z"/>
<path d="M14120 20920 c77 -73 272 -201 409 -269 254 -127 549 -215 751 -225
47 -2 72 -2 55 1 -334 48 -574 120 -819 246 -103 52 -308 185 -399 257 l-52
42 55 -52z"/>
<path d="M22888 20773 c6 -2 18 -2 25 0 6 3 1 5 -13 5 -14 0 -19 -2 -12 -5z"/>
<path d="M8160 20749 c-41 -10 -115 -39 -165 -63 -85 -42 -215 -131 -231 -158
-4 -7 4 -3 17 9 44 40 198 131 277 163 42 18 115 41 162 51 53 11 72 18 50 18
-19 0 -69 -9 -110 -20z"/>
<path d="M22990 20755 c36 -7 94 -25 130 -39 59 -24 98 -47 291 -173 37 -23
96 -74 132 -112 107 -114 166 -237 208 -436 13 -60 25 -102 27 -91 6 28 -37
201 -70 286 -69 174 -150 270 -330 391 -184 122 -335 190 -423 188 -18 -1 -3
-6 35 -14z"/>
<path d="M8241 20730 c-184 -39 -344 -125 -485 -261 -255 -244 -353 -545 -295
-904 30 -186 111 -338 256 -478 246 -238 431 -297 1978 -622 1218 -257 2141
-433 3065 -586 624 -102 600 -98 600 -108 0 -4 -35 -2 -77 5 -173 28 -561 86
-598 90 -28 3 604 -111 644 -116 9 -1 -10 -1455 -23 -1790 -16 -391 -18 -436
-42 -835 -60 -1035 -130 -1661 -375 -3370 -209 -1462 -241 -1579 -844 -3065
-127 -312 -207 -522 -202 -527 4 -3 251 596 397 962 110 275 215 550 291 760
37 105 68 185 69 179 0 -20 -136 -412 -213 -615 -41 -107 -156 -396 -255 -644
-174 -436 -283 -723 -344 -910 -149 -456 164 -1131 630 -1357 108 -52 182 -62
432 -55 236 7 284 18 445 97 163 80 295 169 385 260 170 170 258 351 515 1060
321 883 650 1962 819 2685 77 329 218 1070 265 1388 10 70 22 131 26 135 9 9
525 15 592 7 60 -7 54 3 73 -135 24 -182 121 -710 201 -1100 122 -594 347
-1392 651 -2310 294 -890 536 -1486 674 -1667 234 -305 616 -461 1039 -424
218 19 346 67 489 182 223 179 386 456 453 771 12 56 18 128 18 223 l0 140
-51 150 c-80 233 -169 467 -394 1035 -427 1080 -475 1235 -644 2120 -86 447
-228 1309 -225 1366 0 11 34 -177 74 -416 118 -706 201 -1150 286 -1535 73
-328 112 -458 252 -832 162 -429 655 -1648 664 -1640 6 6 -55 163 -292 752
-407 1013 -494 1258 -594 1675 -116 482 -349 1828 -436 2512 -63 497 -131
1402 -170 2253 -29 636 -36 926 -42 1716 l-6 797 54 11 c30 6 299 51 599 100
804 132 1473 257 2420 452 937 193 1938 414 1926 426 -2 2 -145 -27 -317 -66
-1634 -365 -3129 -661 -4144 -820 -487 -76 -565 -87 -565 -79 0 4 3 8 6 8 21
0 1274 213 1594 271 1051 190 3489 708 3700 786 54 20 138 72 201 125 125 106
278 347 345 545 25 75 26 84 21 228 -16 407 -149 653 -465 860 -299 196 -383
194 -1407 -36 -1745 -393 -3062 -630 -4420 -798 -375 -46 -514 -59 -725 -64
-85 -3 -135 -3 -110 0 25 2 169 15 320 29 1293 117 2949 401 4885 838 505 114
658 150 647 154 -13 4 -143 -24 -607 -128 -1697 -382 -2969 -614 -4240 -775
-658 -83 -1098 -110 -1960 -122 -646 -8 -1019 9 -1607 72 -1305 141 -2737 391
-4603 805 -539 119 -655 144 -660 138 -5 -4 123 -34 610 -144 1998 -451 3696
-739 5000 -849 267 -22 275 -24 100 -19 -213 6 -339 17 -725 65 -1354 165
-2702 409 -4495 814 -556 125 -725 156 -880 160 -71 2 -150 0 -174 -5z m6537
-1047 c-16 -2 -40 -2 -55 0 -16 2 -3 4 27 4 30 0 43 -2 28 -4z m1750 0 c-16
-2 -40 -2 -55 0 -16 2 -3 4 27 4 30 0 43 -2 28 -4z m-3171 -2615 c-1 -84 -3
-16 -3 152 0 168 2 236 3 153 2 -84 2 -222 0 -305z m4562 -1088 c30 -917 73
-1673 137 -2378 14 -156 23 -289 21 -295 -2 -7 -7 20 -10 58 -4 39 -18 187
-32 330 -92 966 -133 1839 -139 2985 l-4 705 8 -525 c4 -289 13 -685 19 -880z
m-4572 503 c-1 -43 -3 -10 -3 72 0 83 2 118 3 78 2 -40 2 -107 0 -150z m-16
-633 c-41 -1209 -108 -1916 -357 -3750 -97 -711 -151 -1067 -210 -1375 -30
-158 -124 -548 -131 -542 -2 3 5 40 16 83 90 356 230 1209 351 2144 22 173 52
392 65 485 129 901 228 2096 263 3185 4 129 9 206 10 170 2 -36 -1 -216 -7
-400z m4756 -2622 c-2 -13 -4 -5 -4 17 -1 22 1 32 4 23 2 -10 2 -28 0 -40z
m10 -95 c-3 -10 -5 -2 -5 17 0 19 2 27 5 18 2 -10 2 -26 0 -35z m10 -80 c-3
-10 -5 -4 -5 12 0 17 2 24 5 18 2 -7 2 -21 0 -30z m10 -85 c-3 -8 -6 -5 -6 6
-1 11 2 17 5 13 3 -3 4 -12 1 -19z m50 -390 c-3 -7 -5 -2 -5 12 0 14 2 19 5
13 2 -7 2 -19 0 -25z m10 -65 c-3 -10 -5 -4 -5 12 0 17 2 24 5 18 2 -7 2 -21
0 -30z m-5550 -2365 c-3 -8 -6 -5 -6 6 -1 11 2 17 5 13 3 -3 4 -12 1 -19z"/>
<path d="M22558 20733 c7 -3 16 -2 19 1 4 3 -2 6 -13 5 -11 0 -14 -3 -6 -6z"/>
<path d="M8718 20723 c7 -3 16 -2 19 1 4 3 -2 6 -13 5 -11 0 -14 -3 -6 -6z"/>
<path d="M22508 20723 c6 -2 18 -2 25 0 6 3 1 5 -13 5 -14 0 -19 -2 -12 -5z"/>
<path d="M8768 20713 c7 -3 16 -2 19 1 4 3 -2 6 -13 5 -11 0 -14 -3 -6 -6z"/>
<path d="M7714 20488 l-29 -33 33 29 c17 17 32 31 32 33 0 8 -8 1 -36 -29z"/>
<path d="M15983 20433 c9 -2 23 -2 30 0 6 3 -1 5 -18 5 -16 0 -22 -2 -12 -5z"/>
<path d="M7639 20403 c-13 -16 -12 -17 4 -4 9 7 17 15 17 17 0 8 -8 3 -21 -13z"/>
<path d="M7514 20208 c-31 -61 -74 -173 -74 -191 1 -6 14 22 29 63 15 41 40
99 55 128 14 28 24 52 21 52 -2 0 -17 -23 -31 -52z"/>
<path d="M7422 19935 c0 -16 2 -22 5 -12 2 9 2 23 0 30 -3 6 -5 -1 -5 -18z"/>
<path d="M7414 19785 c0 -66 1 -92 3 -57 2 34 2 88 0 120 -2 31 -3 3 -3 -63z"/>
<path d="M23781 19864 c0 -11 3 -14 6 -6 3 7 2 16 -1 19 -3 4 -6 -2 -5 -13z"/>
<path d="M7422 19630 c0 -19 2 -27 5 -17 2 9 2 25 0 35 -3 9 -5 1 -5 -18z"/>
<path d="M7431 19574 c-2 -40 48 -214 80 -279 41 -83 48 -79 10 6 -29 65 -62
166 -79 249 -6 25 -10 35 -11 24z"/>
<path d="M23771 19535 c-18 -85 -59 -177 -131 -302 -114 -197 -196 -289 -326
-368 -33 -19 -55 -35 -50 -35 5 0 41 20 80 44 84 52 174 143 238 241 106 161
214 402 206 458 -2 13 -9 -4 -17 -38z"/>
<path d="M7660 19096 c110 -114 315 -258 400 -281 14 -3 -17 16 -68 44 -123
66 -208 128 -312 225 -81 77 -82 77 -20 12z"/>
<path d="M22978 18753 c7 -3 16 -2 19 1 4 3 -2 6 -13 5 -11 0 -14 -3 -6 -6z"/>
<path d="M22938 18743 c7 -3 16 -2 19 1 4 3 -2 6 -13 5 -11 0 -14 -3 -6 -6z"/>
<path d="M8348 18733 c7 -3 16 -2 19 1 4 3 -2 6 -13 5 -11 0 -14 -3 -6 -6z"/>
<path d="M8388 18723 c7 -3 16 -2 19 1 4 3 -2 6 -13 5 -11 0 -14 -3 -6 -6z"/>
<path d="M8421 18716 c11 -11 803 -188 1414 -317 943 -199 2461 -489 2496
-477 6 2 -112 25 -263 52 -843 148 -2201 425 -3362 686 -261 58 -294 65 -285
56z"/>
<path d="M12363 17913 c9 -2 23 -2 30 0 6 3 -1 5 -18 5 -16 0 -22 -2 -12 -5z"/>
<path d="M12435 17900 c17 -4 44 -8 60 -8 25 0 24 2 -10 9 -51 10 -92 10 -50
-1z"/>
<path d="M12543 17883 c9 -2 23 -2 30 0 6 3 -1 5 -18 5 -16 0 -22 -2 -12 -5z"/>
<path d="M12603 17873 c9 -2 23 -2 30 0 6 3 -1 5 -18 5 -16 0 -22 -2 -12 -5z"/>
<path d="M15310 12088 c0 -58 -83 -577 -141 -883 -204 -1073 -618 -2460 -1145
-3826 -98 -254 -100 -261 -85 -239 13 21 137 331 212 533 547 1466 939 2875
1114 4012 26 165 51 322 56 349 11 61 11 66 -1 66 -5 0 -10 -6 -10 -12z"/>
<path d="M15920 12095 c0 -14 62 -404 85 -535 161 -919 393 -1824 727 -2840
194 -590 528 -1503 544 -1487 2 2 -28 87 -67 188 -532 1380 -946 2789 -1153
3922 -39 213 -116 707 -116 744 0 7 -4 13 -10 13 -5 0 -10 -2 -10 -5z"/>
<path d="M19481 7954 c0 -11 3 -14 6 -6 3 7 2 16 -1 19 -3 4 -6 -2 -5 -13z"/>
<path d="M19492 7915 c0 -11 4 -33 8 -50 7 -27 8 -27 8 -5 0 14 -4 36 -8 50
-6 20 -8 21 -8 5z"/>
<path d="M11732 7775 c0 -16 2 -22 5 -12 2 9 2 23 0 30 -3 6 -5 -1 -5 -18z"/>
<path d="M11722 7640 c-4 -218 77 -500 200 -698 62 -99 192 -241 287 -312 118
-90 318 -181 390 -179 14 0 -9 9 -51 19 -206 51 -452 233 -587 435 -136 203
-214 442 -231 704 -7 115 -7 115 -8 31z"/>
<path d="M19501 7444 c0 -11 3 -14 6 -6 3 7 2 16 -1 19 -3 4 -6 -2 -5 -13z"/>
<path d="M19481 7344 c-7 -32 -29 -102 -48 -154 -109 -297 -298 -515 -568
-657 -93 -49 -94 -58 -2 -12 268 134 467 355 573 635 28 75 66 222 61 237 -2
6 -9 -16 -16 -49z"/>
<path d="M17280 7215 c0 -5 5 -17 10 -25 5 -8 10 -10 10 -5 0 6 -5 17 -10 25
-5 8 -10 11 -10 5z"/>
<path d="M13887 7049 c-41 -71 -133 -185 -208 -253 -120 -111 -338 -237 -523
-302 -50 -18 -59 -23 -32 -19 22 4 73 20 113 36 280 111 549 326 653 520 39
73 36 88 -3 18z"/>
<path d="M17409 6962 c20 -38 100 -139 147 -188 122 -125 359 -263 494 -288
19 -3 -7 9 -58 28 -112 42 -201 90 -296 160 -78 59 -219 201 -261 265 -28 42
-44 56 -26 23z"/>
<path d="M18098 6473 c7 -3 16 -2 19 1 4 3 -2 6 -13 5 -11 0 -14 -3 -6 -6z"/>
<path d="M18700 6470 c-20 -6 -21 -8 -5 -8 11 0 29 3 40 8 25 11 -1 11 -35 0z"/>
<path d="M13058 6463 c7 -3 16 -2 19 1 4 3 -2 6 -13 5 -11 0 -14 -3 -6 -6z"/>
<path d="M18138 6463 c6 -2 18 -2 25 0 6 3 1 5 -13 5 -14 0 -19 -2 -12 -5z"/>
<path d="M18633 6453 c9 -2 23 -2 30 0 6 3 -1 5 -18 5 -16 0 -22 -2 -12 -5z"/>
<path d="M12648 6443 c6 -2 18 -2 25 0 6 3 1 5 -13 5 -14 0 -19 -2 -12 -5z"/>
<path d="M18568 6443 c6 -2 18 -2 25 0 6 3 1 5 -13 5 -14 0 -19 -2 -12 -5z"/>
</g>
</svg>
