<?xml version="1.0" encoding="UTF-8" standalone="no"?>
<svg
   xmlns:dc="http://purl.org/dc/elements/1.1/"
   xmlns:cc="http://creativecommons.org/ns#"
   xmlns:rdf="http://www.w3.org/1999/02/22-rdf-syntax-ns#"
   xmlns:svg="http://www.w3.org/2000/svg"
   xmlns="http://www.w3.org/2000/svg"
   xmlns:sodipodi="http://sodipodi.sourceforge.net/DTD/sodipodi-0.dtd"
   xmlns:inkscape="http://www.inkscape.org/namespaces/inkscape"
   width="100"
   height="100"
   viewBox="0 0 26.458333 26.458334"
   version="1.1"
   id="svg901"
   inkscape:version="1.0.1 (3bc2e813f5, 2020-09-07)"
   sodipodi:docname="star.svg">
  <defs
     id="defs895">
    <rect
       x="-247.19643"
       y="-9.2207119e-06"
       width="36.285713"
       height="51.40477"
       id="rect925" />
    <rect
       x="-230.56548"
       y="30.994047"
       width="105.07738"
       height="82.398811"
       id="rect905" />
  </defs>
  <sodipodi:namedview
     id="base"
     pagecolor="#ffffff"
     bordercolor="#666666"
     borderopacity="1.0"
     inkscape:pageopacity="0.0"
     inkscape:pageshadow="2"
     inkscape:zoom="1.1789508"
     inkscape:cx="344.28571"
     inkscape:cy="-32.748581"
     inkscape:document-units="px"
     inkscape:current-layer="layer1"
     inkscape:document-rotation="0"
     showgrid="false"
     showguides="true"
     inkscape:guide-bbox="true"
     inkscape:window-width="1920"
     inkscape:window-height="1051"
     inkscape:window-x="-9"
     inkscape:window-y="-9"
     inkscape:window-maximized="1"
     units="px">
    <sodipodi:guide
       position="106.58928,297.00001"
       orientation="0,-1"
       id="guide909" />
    <sodipodi:guide
       position="86.178569,196.45834"
       orientation="0,-1"
       id="guide911" />
    <sodipodi:guide
       position="99.785712,229.72024"
       orientation="1,0"
       id="guide913" />
    <sodipodi:guide
       position="0,168.4881"
       orientation="1,0"
       id="guide915" />
  </sodipodi:namedview>
  <metadata
     id="metadata898">
    <rdf:RDF>
      <cc:Work
         rdf:about="">
        <dc:format>image/svg+xml</dc:format>
        <dc:type
           rdf:resource="http://purl.org/dc/dcmitype/StillImage" />
        <dc:title></dc:title>
      </cc:Work>
    </rdf:RDF>
  </metadata>
  <g
     inkscape:label="Layer 1"
     inkscape:groupmode="layer"
     id="layer1">
    <text
       xml:space="preserve"
       style="font-size:26.0976px;line-height:1.25;font-family:'Font Awesome 5 Free';-inkscape-font-specification:'Font Awesome 5 Free';stroke-width:0.652443"
       x="-0.83401448"
       y="22.333921"
       id="text935"
       inkscape:transform-center-x="149.70059"
       inkscape:transform-center-y="-26.346209"
       transform="scale(0.9872478,1.0129169)"><tspan
         sodipodi:role="line"
         id="tspan933"
         x="-0.83401448"
         y="22.333921"
         style="stroke-width:0.652443"></tspan></text>
    <path
       style="fill:#000000;stroke:#1be9c9;stroke-width:0;stroke-opacity:0.834008"
       d="m 28.750921,84.673594 c 0,-0.30926 0.973436,-6.314151 2.163191,-13.344203 L 33.077303,58.54748 24.021607,49.463617 c -7.375615,-7.398556 -8.760488,-9.167265 -7.464515,-9.533405 0.87515,-0.247248 6.509413,-1.135631 12.520585,-1.974184 l 10.929404,-1.524643 5.610726,-11.636 c 3.0859,-6.3998 5.801574,-11.644055 6.034833,-11.6539 0.233258,-0.0098 2.935896,5.218612 6.005861,11.618793 l 5.581754,11.636695 10.958376,1.53126 c 6.027107,0.842193 11.674407,1.738319 12.549556,1.99139 1.299958,0.375916 -0.05881,2.115257 -7.424042,9.503394 l -9.015222,9.043265 2.140456,13.042813 c 1.177251,7.173548 2.037051,13.127633 1.910665,13.231303 -0.126385,0.103668 -5.256298,-2.576533 -11.399807,-5.956003 l -11.170015,-6.144492 -6.218327,3.353876 c -3.420079,1.844632 -8.603922,4.678728 -11.51965,6.297991 -2.915728,1.619264 -5.301324,2.691085 -5.301324,2.381824 z"
       id="path937"
       transform="scale(0.26458333)" />
    <path
       style="fill:#000000;stroke:#1be9c9;stroke-width:0;stroke-opacity:0.834008"
       d="m 30.083645,79.427431 c 0.323651,-2.215953 1.244394,-7.845959 2.046097,-12.511124 l 1.457641,-8.482118 -8.524894,-8.666359 c -4.688692,-4.766498 -8.323436,-8.867818 -8.07721,-9.114044 0.349099,-0.349099 20.860955,-3.800946 22.818451,-3.840014 0.247588,-0.0049 2.907731,-4.971023 5.911427,-11.035738 3.003696,-6.064714 5.675563,-11.026753 5.937483,-11.026753 0.261919,0 2.933786,4.962039 5.937482,11.026753 3.003696,6.064715 5.663839,11.030796 5.911428,11.035738 1.956255,0.03904 22.469236,3.490799 22.818075,3.839639 0.24602,0.24602 -3.254759,4.163321 -7.779508,8.705113 -5.431741,5.452199 -8.226818,8.894795 -8.226818,10.132676 0,1.03118 0.783849,6.697515 1.741887,12.591856 0.958036,5.89434 1.554327,10.904542 1.325088,11.133779 -0.229238,0.229239 -5.00045,-2.104091 -10.602694,-5.185177 -5.602244,-3.081086 -10.515379,-5.601974 -10.918078,-5.601974 -0.402699,0 -5.289751,2.475997 -10.860116,5.502216 -5.570365,3.026219 -10.437595,5.507238 -10.816067,5.513377 -0.378472,0.0061 -0.423326,-1.801892 -0.09967,-4.017846 z"
       id="path939"
       transform="scale(0.26458333)" />
    <path
       style="fill:#000000;stroke:#1be9c9;stroke-width:0;stroke-opacity:0.834008"
       d="m 29.651991,81.972067 c 0.02907,-0.816404 0.925603,-6.44641 1.992291,-12.511124 l 1.939432,-11.026754 -8.52306,-8.666359 c -4.687683,-4.766498 -8.321601,-8.867818 -8.075375,-9.114044 0.349099,-0.349099 20.860955,-3.800946 22.818451,-3.840014 0.247588,-0.0049 2.907731,-4.971023 5.911427,-11.035738 3.003696,-6.064714 5.675563,-11.026753 5.937483,-11.026753 0.261919,0 2.933786,4.962039 5.937482,11.026753 3.003696,6.064715 5.663839,11.030796 5.911428,11.035738 1.89431,0.0378 22.463448,3.485012 22.799417,3.820981 0.235758,0.235758 -3.26502,4.188187 -7.779508,8.783176 -5.16629,5.258414 -8.20816,9.020406 -8.20816,10.151334 0,0.988246 0.783849,6.619452 1.741887,12.513793 0.958036,5.89434 1.549029,10.909838 1.313317,11.14555 -0.235712,0.235712 -5.122785,-2.151462 -10.860162,-5.304833 L 52.076746,72.190374 41.325783,77.823405 c -5.91303,3.098168 -10.970492,5.633032 -11.238806,5.633032 -0.268314,0 -0.464058,-0.667966 -0.434986,-1.48437 z"
       id="path941"
       transform="scale(0.26458333)" />
    <path
       style="fill:#000000;stroke:#1be9c9;stroke-width:0;stroke-opacity:0.834008"
       d="m 20.807298,96.118051 c -1.229206,-0.966893 -2.240053,-2.589098 -2.246328,-3.6049 -0.0063,-1.015801 1.028797,-8.235992 2.30016,-16.044875 L 23.172701,62.270314 12.390422,51.373137 C 3.441039,42.328387 1.6081428,40.047295 1.6081428,37.95428 c 0,-4.857553 0.9924358,-5.30982 17.1917212,-7.834514 8.260124,-1.287358 15.194281,-2.516524 15.409237,-2.73148 0.214956,-0.214956 3.106361,-6.100555 6.425345,-13.07911 3.318984,-6.9785543 6.642459,-13.36004942 7.3855,-14.18110022 1.749564,-1.93324698 5.534249,-1.91288698 7.300932,0.0392756 0.762589,0.84265242 4.105303,7.23604942 7.428253,14.20754762 3.322948,6.971499 6.198358,12.839425 6.389801,13.039835 0.191441,0.200409 7.106359,1.417674 15.366483,2.705032 16.199285,2.524694 17.191725,2.976961 17.191725,7.834514 0,2.093015 -1.832896,4.374107 -10.782285,13.418857 l -10.782276,10.897177 2.31157,14.197962 c 1.271364,7.808883 2.306436,14.997622 2.30016,15.974974 -0.01467,2.284514 -2.797142,4.801337 -5.284626,4.780089 -1.065121,-0.0091 -7.758704,-3.140563 -14.874628,-6.958806 L 51.647009,83.322276 38.060584,90.599153 c -7.472534,4.002287 -13.908613,7.276885 -14.302397,7.276885 -0.393784,0 -1.721685,-0.791093 -2.950889,-1.757987 z M 43.909904,78.01802 c 3.905535,-2.140552 7.423405,-3.891913 7.817489,-3.891913 0.394085,0 5.786792,2.814386 11.983795,6.25419 8.835469,4.904351 11.313104,5.956998 11.479607,4.877216 0.116782,-0.757334 -0.705019,-6.911552 -1.826222,-13.676041 l -2.038554,-12.299071 9.417909,-9.513919 c 5.179853,-5.232655 9.197247,-9.734583 8.927541,-10.004285 -0.269697,-0.269702 -6.199509,-1.316249 -13.177353,-2.32566 L 63.807129,35.603243 58.031996,23.480838 c -3.176324,-6.667322 -6.048609,-12.122405 -6.382855,-12.122405 -0.334247,0 -3.189318,5.452699 -6.344602,12.117108 L 39.56766,35.592649 26.813047,37.466111 c -7.015038,1.030403 -12.960487,2.079334 -13.212109,2.330957 -0.251623,0.251623 3.785234,4.738759 8.970792,9.971414 l 9.428289,9.513919 -2.02687,12.299071 c -2.762789,16.764635 -2.947797,15.770327 2.382672,12.805386 2.449212,-1.362313 7.648549,-4.228287 11.554083,-6.368838 z"
       id="path943"
       transform="scale(0.26458333)" />
    <path
       style="fill:#000000;stroke:#1be9c9;stroke-width:0;stroke-opacity:0.834008"
       d="m 20.807298,96.118051 c -1.229206,-0.966893 -2.240053,-2.589098 -2.246328,-3.6049 -0.0063,-1.015801 1.028797,-8.235992 2.30016,-16.044875 L 23.172701,62.270314 12.390422,51.373137 C 3.441039,42.328387 1.6081428,40.047295 1.6081428,37.95428 c 0,-4.857553 0.9924358,-5.30982 17.1917212,-7.834514 8.260124,-1.287358 15.181464,-2.504623 15.380756,-2.705032 0.199291,-0.20041 3.079959,-6.074145 6.401485,-13.052744 3.321525,-6.9786002 6.657816,-13.37199658 7.41398,-14.2075484 1.770207,-1.9560565 5.548631,-1.9497264 7.324214,0.0122702 0.762271,0.8423006 4.113059,7.2356974 7.446195,14.2075482 3.333136,6.971851 6.208807,12.840064 6.390381,13.040474 0.181573,0.200409 7.088416,1.417674 15.34854,2.705032 16.199285,2.524694 17.191725,2.976961 17.191725,7.834514 0,2.093015 -1.832896,4.374107 -10.782285,13.418857 l -10.782276,10.897177 2.31157,14.197962 c 1.271364,7.808883 2.306436,14.997622 2.30016,15.974974 -0.01467,2.284514 -2.797142,4.801337 -5.284626,4.780089 -1.065121,-0.0091 -7.75166,-3.136797 -14.858977,-6.950434 L 51.678311,83.339019 38.142029,90.607525 c -7.444955,3.997681 -13.888076,7.268513 -14.318047,7.268513 -0.429972,0 -1.78748,-0.791093 -3.016684,-1.757987 z M 40.20178,80.06359 c 5.977079,-3.265615 11.157771,-5.937483 11.512649,-5.937483 0.354879,0 5.654208,2.720315 11.776289,6.045144 6.122081,3.324832 11.339968,5.836234 11.595306,5.580897 0.255338,-0.255337 -0.485046,-6.31549 -1.645298,-13.467 l -2.109549,-13.002747 9.41533,-9.513919 c 5.178428,-5.232655 9.209461,-9.719791 8.957831,-9.971414 C 89.452716,39.545445 83.50727,38.496514 76.492232,37.466111 L 63.737619,35.592649 58.00074,23.475541 c -3.155283,-6.664409 -6.01079,-12.117108 -6.34557,-12.117108 -0.334779,0 -3.17874,5.450836 -6.319911,12.112967 L 39.624038,35.584368 26.841236,37.46197 c -7.030541,1.032681 -12.988676,2.083475 -13.240298,2.335098 -0.251623,0.251623 3.795201,4.738759 8.992943,9.971414 l 9.450438,9.513919 -2.051325,12.299071 c -2.31447,13.876796 -2.366209,14.419601 -1.374458,14.419601 0.393705,0 5.606165,-2.671867 11.583244,-5.937483 z"
       id="path945"
       transform="scale(0.26458333)" />
  </g>
</svg>
