<svg version="1.1" viewBox="0 0 150 150" xmlns="http://www.w3.org/2000/svg">
 <g>
  <g transform="matrix(.18318 0 0 .18318 -.75334 -1.5584)" stroke-width="1.0667">
   <path d="m177.26 380.21c-0.31626-0.82416-0.37802-3.1042-0.13724-5.0667 0.39981-3.2586 0.4526-3.1797 0.60849 0.90938 0.17071 4.4776 0.17071 4.4776 5.7707 4.8694l5.6 0.39177-5.6335 0.19731c-3.9948 0.13992-5.8008-0.23857-6.2085-1.3011zm92.144 0.71083c3.0997-0.21616 7.8997-0.21389 10.667 5e-3 2.767 0.21893 0.23091 0.39578-5.6358 0.393-5.8667-3e-3 -8.1306-0.1819-5.0309-0.39804zm96 0c3.0997-0.21616 7.8997-0.21389 10.667 5e-3 2.767 0.21893 0.23092 0.39578-5.6358 0.393-5.8667-3e-3 -8.1306-0.1819-5.0309-0.39804zm-188.18-94.679c3e-3 -5.8667 0.1819-8.1306 0.39805-5.0309 0.21616 3.0997 0.21389 7.8997-5e-3 10.667-0.21893 2.767-0.39577 0.23091-0.393-5.6358z" fill="#e0e0e0"/>
   <path d="m371.9 255.04c-1.3268-1.6918-1.2891-1.7295 0.40273-0.40274 1.7768 1.3935 2.3418 2.2694 1.4639 2.2694-0.22149 0-1.0615-0.84-1.8667-1.8667z" fill="#dadada"/>
   <path d="m251.97 350.24c5e-4 -17.013 0.14778-23.824 0.32727-15.135 0.1795 8.6892 0.17909 22.609-9.1e-4 30.933-0.18001 8.3241-0.32687 1.2148-0.32636-15.799zm50.021 22.933c0-4.4 0.18828-6.2 0.41841-4 0.23012 2.2 0.23012 5.8 0 8-0.23013 2.2-0.41841 0.4-0.41841-4zm0.0779-49.6c-1e-3 -9.9733 0.15911-14.197 0.35628-9.3857 0.19719 4.8112 0.19819 12.971 2e-3 18.133-0.19595 5.1621-0.35728 1.2257-0.35851-8.7476zm-50.11-53.333c7e-4 -14.08 0.15248-19.692 0.33729-12.472 0.18481 7.2203 0.18424 18.74-1e-3 25.6-0.1855 6.8597-0.33671 0.95216-0.33602-13.128z" fill="#bcbcbc"/>
   <path d="m301.72 364.02c0.0512-1.2426 0.30393-1.4954 0.64443-0.64445 0.30813 0.77 0.27024 1.69-0.0842 2.0444s-0.60654-0.27556-0.56023-1.4zm-50.133-45.867c0.0512-1.2426 0.30393-1.4954 0.64443-0.64445 0.30813 0.76999 0.27024 1.69-0.0842 2.0444-0.35445 0.35444-0.60654-0.27557-0.56023-1.4z" fill="#b6b6b6"/>
   <path d="m273.7 529.25c0.77-0.30813 1.69-0.27024 2.0444 0.0842 0.35444 0.35444-0.27556 0.60655-1.4 0.56024-1.2426-0.0512-1.4954-0.30394-0.64445-0.64444zm5.3333 0c0.76999-0.30813 1.69-0.27024 2.0444 0.0842 0.35445 0.35444-0.27556 0.60655-1.4 0.56024-1.2426-0.0512-1.4954-0.30394-0.64444-0.64444zm22.985-176.34c0-5.5733 0.17977-7.8533 0.39951-5.0667 0.21973 2.7867 0.21973 7.3467 0 10.133-0.21974 2.7867-0.39951 0.50667-0.39951-5.0667zm-50.133-45.867c0-5.5733 0.17977-7.8533 0.39951-5.0667 0.21973 2.7867 0.21973 7.3467 0 10.133-0.21974 2.7867-0.39951 0.50666-0.39951-5.0667zm-223.23-23.022c0.05118-1.2426 0.30394-1.4954 0.64444-0.64444 0.30813 0.76999 0.27023 1.69-0.08421 2.0444-0.35444 0.35445-0.60655-0.27556-0.56024-1.4zm496 0c0.0512-1.2426 0.30393-1.4954 0.64443-0.64444 0.30813 0.76999 0.27024 1.69-0.0842 2.0444-0.35444 0.35445-0.60654-0.27556-0.56023-1.4zm-496-5.3333c0.05118-1.2426 0.30394-1.4954 0.64444-0.64445 0.30813 0.77 0.27023 1.69-0.08421 2.0444-0.35444 0.35444-0.60655-0.27556-0.56024-1.4zm496 0c0.0512-1.2426 0.30393-1.4954 0.64443-0.64445 0.30813 0.77 0.27024 1.69-0.0842 2.0444-0.35444 0.35444-0.60654-0.27556-0.56023-1.4zm-222.64-22.844c0-4.9867 0.18374-7.0267 0.40832-4.5333 0.22456 2.4933 0.22456 6.5733 0 9.0667-0.22458 2.4933-0.40832 0.45333-0.40832-4.5333zm-28.306-222.6c0.77-0.30813 1.69-0.27023 2.0444 0.08421 0.35444 0.35444-0.27556 0.60655-1.4 0.56024-1.2426-0.05118-1.4954-0.30394-0.64445-0.64444zm5.3333 0c0.76999-0.30813 1.69-0.27023 2.0444 0.08421 0.35445 0.35444-0.27556 0.60655-1.4 0.56024-1.2426-0.05118-1.4954-0.30394-0.64444-0.64444z" fill="#b0b0b0"/>
   <path d="m270.5 529.25c0.77-0.30813 1.69-0.27024 2.0444 0.0842 0.35444 0.35444-0.27556 0.60655-1.4 0.56024-1.2426-0.0512-1.4954-0.30394-0.64445-0.64444zm11.733 0c0.76999-0.30813 1.69-0.27024 2.0444 0.0842 0.35445 0.35444-0.27556 0.60655-1.4 0.56024-1.2426-0.0512-1.4954-0.30394-0.64444-0.64444zm168.73-71.141c0-0.22149 0.84-1.0615 1.8667-1.8667 1.6918-1.3268 1.7295-1.2891 0.40274 0.40273-1.3935 1.7768-2.2694 2.3418-2.2694 1.4639zm-422.32-170.89c0.05118-1.2426 0.30394-1.4954 0.64444-0.64444 0.30813 0.76999 0.27023 1.69-0.08421 2.0444-0.35444 0.35445-0.60655-0.27556-0.56024-1.4zm496 0c0.0512-1.2426 0.30393-1.4954 0.64443-0.64444 0.30813 0.76999 0.27024 1.69-0.0842 2.0444-0.35444 0.35445-0.60654-0.27556-0.56023-1.4zm-496-11.733c0.05118-1.2426 0.30394-1.4954 0.64444-0.64445 0.30813 0.77 0.27023 1.69-0.08421 2.0444-0.35444 0.35444-0.60655-0.27556-0.56024-1.4zm496 0c0.0512-1.2426 0.30393-1.4954 0.64443-0.64445 0.30813 0.77 0.27024 1.69-0.0842 2.0444-0.35444 0.35444-0.60654-0.27556-0.56023-1.4zm-424.62-168.31c0-0.2215 0.84-1.0615 1.8667-1.8667 1.6918-1.3268 1.7295-1.2891 0.40273 0.40272-1.3935 1.7768-2.2694 2.3418-2.2694 1.4639zm170.47-73.926c0.77-0.30813 1.69-0.27023 2.0444 0.08421 0.35444 0.35444-0.27556 0.60655-1.4 0.56024-1.2426-0.05118-1.4954-0.30394-0.64445-0.64444zm11.733 0c0.76999-0.30813 1.69-0.27023 2.0444 0.08421 0.35445 0.35444-0.27556 0.60655-1.4 0.56024-1.2426-0.05118-1.4954-0.30394-0.64444-0.64444z" fill="#9e9e9e"/>
   <path d="m227.41 361.98c1e-3 -10.56 0.16074-14.736 0.35473-9.2794 0.19398 5.4563 0.19306 14.096-2e-3 19.2-0.1951 5.1037-0.35381 0.63938-0.35269-9.9206zm0.0388-78.4c0-20.24 0.14344-28.52 0.31876-18.4 0.17531 10.12 0.17531 26.68 0 36.8-0.17532 10.12-0.31876 1.84-0.31876-18.4z" fill="#8c8c8c"/>
   <path d="m227.05 341.62c0.0512-1.2426 0.30393-1.4954 0.64443-0.64445 0.30813 0.77 0.27024 1.69-0.0842 2.0444-0.35445 0.35444-0.60655-0.27556-0.56023-1.4zm0-20.267c0.0512-1.2426 0.30393-1.4954 0.64443-0.64445 0.30813 0.76999 0.27024 1.69-0.0842 2.0444-0.35445 0.35444-0.60655-0.27557-0.56023-1.4z" fill="#868686"/>
   <path d="m227.34 331.58c0-4.9867 0.18374-7.0267 0.40832-4.5333 0.22456 2.4933 0.22456 6.5733 0 9.0667-0.22458 2.4933-0.40832 0.45333-0.40832-4.5333z" fill="#808080"/>
   <path d="m264.1 529.25c0.77-0.30813 1.69-0.27024 2.0444 0.0842 0.35444 0.35444-0.27556 0.60655-1.4 0.56024-1.2426-0.0512-1.4954-0.30394-0.64445-0.64444zm24.533 0c0.77-0.30813 1.69-0.27024 2.0444 0.0842 0.35445 0.35444-0.27556 0.60655-1.4 0.56024-1.2426-0.0512-1.4954-0.30394-0.64445-0.64444zm-191.94-76.871c-1.3268-1.6918-1.2891-1.7295 0.40272-0.40273 1.7768 1.3935 2.3418 2.2694 1.4639 2.2694-0.2215 0-1.0615-0.84-1.8667-1.8667zm-68.046-158.76c0.05118-1.2426 0.30394-1.4954 0.64444-0.64444 0.30813 0.76999 0.27023 1.69-0.08421 2.0444-0.35444 0.35445-0.60655-0.27556-0.56024-1.4zm496 0c0.0512-1.2426 0.30393-1.4954 0.64443-0.64444 0.30813 0.76999 0.27024 1.69-0.0842 2.0444-0.35444 0.35445-0.60654-0.27556-0.56023-1.4zm-496-24.533c0.05118-1.2426 0.30394-1.4954 0.64444-0.64445 0.30813 0.77 0.27023 1.69-0.08421 2.0444-0.35444 0.35444-0.60655-0.27556-0.56024-1.4zm496 0c0.0512-1.2426 0.30393-1.4954 0.64443-0.64445 0.30813 0.77 0.27024 1.69-0.0842 2.0444-0.35444 0.35444-0.60654-0.27556-0.56023-1.4zm-77.02-167.64c-1.3268-1.6918-1.2891-1.7295 0.40274-0.40272 1.0267 0.80517 1.8667 1.6452 1.8667 1.8667 0 0.8779-0.87593 0.31285-2.2694-1.464zm-183.53-68.195c0.77-0.30813 1.69-0.27023 2.0444 0.08421 0.35444 0.35444-0.27556 0.60655-1.4 0.56024-1.2426-0.05118-1.4954-0.30394-0.64445-0.64444zm24.533 0c0.77-0.30813 1.69-0.27023 2.0444 0.08421 0.35445 0.35444-0.27556 0.60655-1.4 0.56024-1.2426-0.05118-1.4954-0.30394-0.64445-0.64444z" fill="#7a7a7a"/>
   <path d="m263.03 553.78c0.76999-0.30813 1.69-0.27024 2.0444 0.0842 0.35445 0.35445-0.27556 0.60655-1.4 0.56024-1.2426-0.0512-1.4954-0.30394-0.64444-0.64444zm-155.67-90.738c-1.3268-1.6918-1.2891-1.7295 0.40273-0.40273 1.0267 0.80517 1.8667 1.6452 1.8667 1.8667 0 0.87791-0.87594 0.31286-2.2694-1.4639zm-103.25-168.36c0.051183-1.2426 0.30394-1.4954 0.64444-0.64445 0.30813 0.77 0.27023 1.69-0.084211 2.0444-0.35444 0.35444-0.60655-0.27556-0.56023-1.4zm545.07-26.667c0.0512-1.2426 0.30393-1.4954 0.64444-0.64445 0.30812 0.76999 0.27024 1.69-0.0842 2.0444-0.35445 0.35444-0.60655-0.27557-0.56024-1.4zm-90.887-155.91c-1.3268-1.6918-1.2891-1.7295 0.40273-0.40272 1.0267 0.80516 1.8667 1.6452 1.8667 1.8667 0 0.8779-0.87594 0.31286-2.2694-1.4639zm-168.6-103.4c0.77-0.30813 1.69-0.27023 2.0444 0.08421 0.35444 0.35444-0.27556 0.60655-1.4 0.56023-1.2426-0.051183-1.4954-0.30394-0.64445-0.64444z" fill="#626262"/>
   <path d="m388.3 376.91c0.0118-2.3467 0.23028-3.1811 0.48542-1.8542 0.25514 1.3268 0.24545 3.2468-0.0215 4.2667-0.26697 1.0198-0.47573-0.0658-0.46389-2.4124zm0.18702-47.467c0-13.2 0.15312-18.6 0.34027-12 0.18713 6.6 0.18713 17.4 0 24-0.18715 6.6-0.34027 1.2-0.34027-12z" fill="#4b4b4b"/>
   <path d="m286.5 553.78c0.77-0.30813 1.69-0.27024 2.0444 0.0842 0.35444 0.35445-0.27556 0.60655-1.4 0.56024-1.2426-0.0512-1.4954-0.30394-0.64445-0.64444zm101.92-190.74c3e-3 -5.8667 0.1819-8.1306 0.39805-5.0309 0.21616 3.0997 0.21388 7.8997-5e-3 10.667-0.21893 2.767-0.39577 0.23091-0.393-5.6358zm160.76-71.556c0.0512-1.2426 0.30393-1.4954 0.64444-0.64445 0.30812 0.77 0.27024 1.69-0.0842 2.0444-0.35445 0.35444-0.60655-0.27556-0.56024-1.4zm-545.07-20.267c0.051183-1.2426 0.30394-1.4954 0.64444-0.64445 0.30813 0.76999 0.27023 1.69-0.084211 2.0444-0.35444 0.35444-0.60655-0.27557-0.56023-1.4zm262.12-262.51c0.76999-0.30813 1.69-0.27023 2.0444 0.08421 0.35445 0.35444-0.27556 0.60655-1.4 0.56023-1.2426-0.051183-1.4954-0.30394-0.64444-0.64444z" fill="#454545"/>
   <path d="m257.9 553.49c-117.99-8.6321-216.43-91.236-245.31-205.86-10.596-42.049-10.596-90.329 0-132.38 24.675-97.925 100.4-173.65 198.32-198.32 42.049-10.596 90.329-10.596 132.38 0 89.484 22.548 161.13 88.08 191.41 175.06 19.88 57.113 19.856 121.78-0.0659 179.1-40.249 115.81-154.81 191.31-276.74 182.39zm55.467-26.184c53.666-8.2374 100.96-32.153 139.2-70.397 38.537-38.537 62.103-85.368 70.582-140.27 2.631-17.033 2.631-53.367 0-70.4-8.4798-54.898-32.045-101.73-70.582-140.27-38.537-38.537-85.368-62.103-140.27-70.582-17.033-2.631-53.367-2.631-70.4 0-54.898 8.4798-101.73 32.045-140.27 70.582-38.537 38.537-62.103 85.368-70.582 140.27-2.631 17.033-2.631 53.367 0 70.4 8.4798 54.898 32.045 101.73 70.582 140.27 42.31 42.31 92.9 65.832 155.73 72.41 8.975 0.93956 45.264-0.3646 56-2.0126zm-135.47-214.93v-68.267h49.067v136.53h-49.067zm74.667 0v-68.267h49.067v21.574l3.4667-5.1805c5.84-8.727 16.146-13.786 31.2-15.316 20.686-2.1018 35.571 5.4756 43.981 22.388 6.9994 14.076 7.0981 14.951 7.4958 66.4l0.36072 46.667h-49.102l-0.301-43.467c-0.33463-48.325-0.47821-49.329-7.6823-53.722-6.3237-3.8562-17.509-1.9947-22.255 3.7038-6.7362 8.0881-6.601 7.0744-6.9547 52.152l-0.32427 41.333h-48.951zm-59.733-83.29c-20.693-9.3815-18.835-39.039 2.8409-45.34 24.356-7.0805 41.879 22.336 23.972 40.243-7.4862 7.4862-17.391 9.3692-26.813 5.0975z" fill="#333"/>
  </g>
 </g>
</svg>
