<svg version="1.1" viewBox="0 0 195.84 195.84" xmlns="http://www.w3.org/2000/svg">
 <g>
  <g transform="translate(-10.667 -2.2223)" opacity=".92787" stroke-width=".32">
   <path d="m46.385 156.56c0.48543-0.44721 11.303-3.9471 11.744-3.7999 0.36309 0.12107-11.033 4.0799-11.744 4.0799-0.19154 0-0.19146-0.10348 2.21e-4 -0.28006zm-4.7593-3.9875c-4.9121-5.021-5.5986-5.9112-5.9817-7.7569-0.19733-0.95054-0.58351-1.854-0.85818-2.0077-0.43171-0.24159-0.18202-1.2288 1.8422-7.2836 1.9861-5.9406 2.3749-6.8584 2.5609-6.0442 0.36515 1.5988 0.85181 2.5958 1.8179 3.7244 1.1802 1.3788 2.1536 3.0782 2.4543 4.2851 0.44252 1.7758 5.9894 8.3848 9.2579 11.03 0.97844 0.792 1.786 1.6282 1.7945 1.8582 0.02144 0.5774-8.7912 4.5418-10.096 4.5418-0.27226 0-1.5285-1.0564-2.7917-2.3476zm26.343-3.5233c0.59373-0.58545 12.28-5.3394 13.6-5.5325 1.0682-0.15628-0.48148 0.55433-6.72 3.0814-6.7175 2.7211-7.4007 2.9645-6.88 2.4511zm-6.9479-5.4316c-3.2058-2.6704-6.6916-6.4319-9.8393-10.618-1.1912-1.584-2.5626-3.312-3.0476-3.84-1.1523-1.2545-2.5652-3.7343-2.5652-4.5024 0-0.33336-0.37562-1.7607-0.83471-3.1719-0.45909-1.4112-0.8923-2.7607-0.96269-2.999s-0.32734-0.35671-0.57099-0.26321c-0.44704 0.17155 1.5251-4.966 4.9534-12.904l1.7276-4 0.20376 1.6389c0.29004 2.333 1.7954 6.662 2.556 7.3503 0.71432 0.64645 3.1677 5.326 3.1677 6.042 0 0.72451 4.1769 6.7571 7.0904 10.24 2.9959 3.5819 8.6297 9.2695 11.102 11.208 0.89782 0.704 1.5985 1.4924 1.557 1.752-0.06373 0.39898-10.829 6.3958-11.498 6.4049-0.12532 2e-3 -1.4933-1.051-3.04-2.3394zm31.748-4.9646c0.352-0.33775 2.152-1.298 4-2.134 1.848-0.83595 6.528-3.1209 10.4-5.0776 6.6517-3.3615 6.9694-3.5625 5.76-3.6444-0.704-0.0477-2.7859-0.31406-4.6265-0.59193-3.8973-0.58838-6.2718-0.42282-10.182 0.70998-2.6879 0.77867-6.6827 2.645-10.133 4.734-1.0456 0.63314-2.1277 1.1512-2.4046 1.1512-0.5314 0-3.1818-2.0291-6.8697-5.2594-4.9345-4.3221-11.191-12.146-14.778-18.48-1.1646-2.0566-2.2963-3.8079-2.5148-3.8918-1.2796-0.49102-4.0329-11.76-4.0189-16.449 0.0055-1.8596-0.08906-2.32-0.47666-2.32-0.55301 0 0.50368-2.2256 4.6919-9.882 3.9433-7.2087 6.0544-8.9519 11.196-9.2451 4.4513-0.2538 8.5806 0.76575 14.267 3.5226 2.6076 1.2642 2.6252 1.2808 1.9409 1.8349-0.66553 0.53891-0.77266 0.52197-2.9514-0.46684-10.45-4.7426-17.792-3.6751-19.406 2.8214-1.8825 7.5806 5.712 22.219 17.19 33.135 1.735 1.65 4.0906 3.8883 5.2346 4.974 2.3379 2.2188 3.8911 3.3825 4.5294 3.3934 0.23683 4e-3 1.6546 0.72528 3.1506 1.6027 5.8621 3.4382 13.15 5.7774 16.425 5.2715 3.595-0.55548 5.2139-1.5954 6.4653-4.1532 0.80684-1.6491 0.85255-1.9782 0.74484-5.3627l-0.11476-3.6057 0.83821-0.0972c0.81586-0.0946 0.849-0.0278 1.2436 2.5087 0.49059 3.1537 0.25563 6.1514-0.64653 8.2486-1.4202 3.3013-4.3016 5.2234-17.258 11.512-10.156 4.9297-12.439 5.9525-11.697 5.2406zm38.621-2.269c-1.2656-1.3948-2.3011-2.8132-2.3011-3.152 0-1.3522 4.186-5.9825 6.4549-7.1399 0.83406-0.42551 1.5852-0.59101 2.0982-0.46227 0.96404 0.24195 3.9623 3.1716 4.694 4.5866 0.5173 1.0004 0.51147 1.0283-0.36063 1.7316-0.48754 0.39315-2.3064 2.1227-4.0418 3.8435-1.7355 1.7208-3.4 3.1287-3.6989 3.1287s-1.579-1.1412-2.8446-2.5361zm4.9182-0.10393c1.0456-1.1 2.729-2.7115 3.7409-3.581 1.0119-0.86956 1.8398-1.6846 1.8398-1.8113 0-0.53238-2.5973-3.4585-3.6441-4.1055-1.0968-0.67783-1.1747-0.68335-2.2752-0.1611-1.2922 0.61318-6.2407 5.7425-6.2407 6.4687 0 0.42925 4.0692 5.0993 4.4991 5.1635 0.0985 0.0147 1.0346-0.87326 2.0801-1.9733zm25.421-31.92-0.96921-1.92h-1.5746c-3.5702 0-4.1209-1.1395-1.7259-3.5711l1.4903-1.5131-0.53032-1.3886c-0.62825-1.6451-0.67093-2.5386-0.14632-3.0632 0.57125-0.57125 1.1924-0.47479 2.9844 0.46343l1.6186 0.84743 1.7981-1.1939c1.5471-1.0272 1.8949-1.1421 2.4915-0.82279 0.6483 0.34696 0.67908 0.52374 0.47336 2.7191l-0.22003 2.348 1.395 1.0104c0.76727 0.55574 1.5033 1.2037 1.6355 1.4399 0.60294 1.0766-0.71307 2.0796-2.7413 2.0894-1.4503 7e-3 -1.8216 0.34284-2.496 2.2579-1.0301 2.9251-2.1101 3.0172-3.4831 0.29722zm-43.431 1.0709c-0.2153-0.0872-1.1206-1.5518-2.0118-3.2547-0.89117-1.7029-2.623-4.4937-3.8486-6.2018-1.2255-1.7081-2.2282-3.1841-2.2282-3.28 0-0.0959 0.35036-0.17435 0.77858-0.17435 1.2252 0 4.0345 3.8171 7.4906 10.178 1.4802 2.7243 1.5473 2.9404 0.90474 2.917-0.38165-0.0139-0.87006-0.0966-1.0854-0.18381zm-13.041-17.952c-3.3326-3.4692-8.2674-7.7938-10.701-9.3775-0.617-0.40155-0.72442-0.6683-0.54959-1.3648l0.21729-0.86575 1.8327 1.3585c5.0685 3.7572 13.833 12.09 13.833 13.152 0 0.25346-0.18 0.6017-0.4 0.77387-0.2919 0.22844-1.4356-0.76499-4.2321-3.6762zm-49.51-26.29c-1.2508-1.4613-2.1821-3.8381-2.1798-5.5633 0.0019-1.4911 0.98806-2.5155 3.1212-3.2423 2.652-0.90364 3.3301-0.64796 3.7592 1.4176 0.12799 0.616 0.72062 2.0999 1.317 3.2976 0.59633 1.1977 1.0842 2.382 1.0842 2.6318 0 0.2498-0.40932 0.66585-0.90959 0.92455-1.2348 0.63855-4.283 1.7857-4.7455 1.7859-0.20628 8.6e-5 -0.8573-0.56323-1.4467-1.2518zm3.9873-0.36271c1.2598-0.53608 2.3385-1.0227 2.3972-1.0814 0.0587-0.0587-0.31516-0.95209-0.83081-1.9853-0.51564-1.0332-1.1819-2.6346-1.4805-3.5586-0.29861-0.924-0.7217-1.68-0.9402-1.68-0.83804 0-3.3336 1.0186-3.9871 1.6275-0.81004 0.75466-0.86716 1.8817-0.1953 3.8534 0.42814 1.2565 2.1628 3.7991 2.5919 3.7991 0.08483 0 1.185-0.43861 2.4447-0.97469zm57.102-4.4692c-3.0203-2.3758 0.71096-7.4394 4.1265-5.6 2.008 1.0814 2.1209 3.6297 0.23413 5.2863-1.3313 1.1689-3.1107 1.2969-4.3607 0.31371zm3.8869-0.80702c2.7741-2.3343-0.29773-6.1401-3.1237-3.87-0.79919 0.642-1.2721 2.1795-0.94348 3.0671 0.65695 1.7743 2.4841 2.135 4.0671 0.8029zm22.707-8.4228c-1.5172-1.3321-2.8397-4.3484-2.9192-6.6581l-0.0624-1.8135 2.1524-0.55014c1.1838-0.30258 2.73-0.83588 3.4358-1.1851 0.98348-0.48658 1.3581-0.54499 1.603-0.24991 0.49162 0.59237 2.7172 1.2281 3.4666 0.99026 0.36819-0.11686 0.75851-0.49311 0.86737-0.8361 0.10886-0.343 0.29623-0.62278 0.41637-0.62175 0.36739 0.0032 2.2984 5.6039 2.2984 6.6663 0 1.9192-4.443 4.5786-8.4325 5.0475-1.5781 0.18547-1.7797 0.12915-2.8258-0.78937zm-83.041-5.7904c-1.2847-0.78332-1.7004-1.5575-1.7004-3.1664 0-1.0282 0.18908-1.4317 0.98455-2.101 0.5415-0.45564 1.3407-0.82844 1.7759-0.82844 3.0208 0 4.7627 3.7261 2.7042 5.7846-1.1082 1.1082-2.2961 1.2064-3.7642 0.31131zm53.549-0.92112c-0.58506-0.64649-0.67364-2.5241-0.228-4.8329 0.15054-0.77996 0.19934-1.6119 0.10844-1.8488-0.0909-0.2369-1.1462-1.0653-2.3452-1.8409-2.3313-1.5081-3.0212-2.3756-2.6983-3.3928 0.29068-0.91584 1.3604-1.4988 3.1935-1.7404 3.4461-0.45411 3.5669-0.54867 4.21-3.2962 0.6054-2.5863 1.4935-3.9029 2.6326-3.9029 0.86077 0 1.4198 0.62353 2.812 3.1363 0.65324 1.179 1.3402 2.2471 1.5265 2.3735 0.18636 0.12638 1.5729 0.14266 3.0811 0.03618 2.7146-0.19164 2.7494-0.18463 3.44 0.69338 0.38373 0.48784 0.69769 1.0922 0.69769 1.343 0 0.2508-0.68555 1.2034-1.5234 2.1168-2.9516 3.2179-2.7849 2.6285-1.6358 5.783 0.83785 2.3 0.95104 2.9135 0.65667 3.5596-0.61109 1.3412-1.7865 1.3531-4.4303 0.04491-1.2968-0.64165-2.5192-1.1666-2.7167-1.1666s-1.393 0.792-2.6568 1.76c-2.4472 1.8744-3.277 2.1108-4.1241 1.1748z" fill="#f9d035"/>
   <path d="m45.348 156.94c0.14651-0.23777-0.2775-0.73417-1.1324-1.3257-3.031-2.0974-8.2779-8.2381-8.8715-10.383-0.23271-0.84081-0.63779-1.6489-0.90018-1.7957-0.33201-0.1858-0.36727-0.33483-0.11596-0.49014 0.62038-0.38342 0.94552 0.0854 1.3242 1.9096 0.28244 1.3605 0.67149 2.0826 1.7015 3.1581 0.73445 0.76687 2.2886 2.4563 3.4537 3.7542 3.0307 3.3763 3.2613 3.4648 6.1178 2.349 4.1949-1.6386 7.6041-3.3196 7.5883-3.7417-0.0085-0.22806-0.81607-1.0626-1.7945-1.8546-3.2684-2.6457-8.8153-9.2546-9.2579-11.03-0.29892-1.1996-1.2722-2.9039-2.4336-4.2614-1.0803-1.2628-1.9196-3.1641-1.7916-4.0584 0.06404-0.44714 0.28475-0.15085 0.70792 0.9503 0.33818 0.88 1.1586 2.3983 1.8231 3.3741 0.66453 0.97574 1.507 2.4712 1.8722 3.3231 1.7183 4.0087 11.529 14.089 15.109 15.525 0.70569 0.28301 0.69526 0.29814-0.21874 0.31745-1.1564 0.0245-11.514 3.4284-12.628 4.1499-0.43319 0.28069-0.68223 0.3393-0.55342 0.13025zm21.809-7.4737c0.12886-0.33579-0.74974-1.142-2.9422-2.6999-4.9525-3.519-10.48-9.1453-14.311-14.566-0.68407-0.968-1.6276-2.192-2.0967-2.72-0.99144-1.1158-2.2394-3.2255-2.235-3.7783 0.0016-0.20994 0.38184 0.26629 0.84483 1.0583 0.46299 0.792 1.2372 1.872 1.7205 2.4 0.48329 0.528 1.8533 2.256 3.0445 3.84 3.1477 4.1856 6.6334 7.9471 9.8393 10.618 1.5467 1.2884 2.9147 2.3411 3.04 2.3394 0.66881-9e-3 11.434-6.0059 11.498-6.4049 0.04147-0.2596-0.65919-1.048-1.557-1.752-2.4725-1.9387-8.1064-7.6264-11.102-11.208-2.9135-3.4834-7.0904-9.516-7.0904-10.24 0-0.72401-2.4572-5.399-3.1829-6.0558-0.8049-0.72843-2.5831-6.129-2.5614-7.7793 0.01229-0.93312 0.18124-0.56283 0.76834 1.6838 0.84884 3.2483 1.4355 4.5933 3.6988 8.48 0.87116 1.496 1.5869 2.9452 1.5905 3.2204 0.01779 1.3536 6.5313 9.9039 11.485 15.077 5.4866 5.7291 13.261 12.005 15.042 12.143 0.28542 0.022-0.05706 0.15136-0.76106 0.2874-1.9499 0.37681-13.34 5.0809-14.178 5.8556-0.46086 0.42597-0.66881 0.50221-0.55405 0.20314zm24.918-10.432c0.13017-0.22743-1.0328-1.0915-3.0684-2.2797-4.4666-2.6073-7.8603-5.181-11.764-8.9217-5.5253-5.2941-10.393-11.483-13.93-17.712-0.84956-1.496-1.8532-3.152-2.2304-3.68-0.82791-1.1591-2.3929-4.7878-2.3929-5.5484 0-0.30044-0.36707-1.9829-0.81572-3.7389-0.44865-1.756-0.90021-4.4167-1.0035-5.9127-0.10327-1.496-0.31095-2.8772-0.46151-3.0694-0.31639-0.40389-0.04323-0.77056 0.57405-0.77056 0.31696 0 0.42489 0.59654 0.41975 2.32-0.01398 4.6889 2.7393 15.958 4.0189 16.449 0.21853 0.0839 1.3502 1.8352 2.5148 3.8918 3.5866 6.3337 9.8432 14.158 14.778 18.48 3.6879 3.2303 6.3383 5.2594 6.8697 5.2594 0.2769 0 1.359-0.51802 2.4046-1.1512 3.45-2.0889 7.4447-3.9553 10.133-4.734 3.9103-1.1328 6.2847-1.2984 10.182-0.70998 1.8406 0.27787 3.9225 0.54424 4.6265 0.59193 1.2094 0.0819 0.89172 0.28293-5.76 3.6444-3.872 1.9568-8.552 4.2432-10.4 5.081s-3.7072 1.828-4.1316 2.2005c-0.42438 0.37246-0.67727 0.51239-0.56198 0.31096zm39.814-3.1377c-1.188-1.2818-2.16-2.5446-2.16-2.8062 0-0.7262 4.9485-5.8555 6.2407-6.4687 1.1006-0.52225 1.1785-0.51673 2.2752 0.1611 1.0468 0.64695 3.6441 3.5731 3.6441 4.1055 0 0.12663-0.82793 0.9417-1.8398 1.8113-1.0119 0.86957-2.6953 2.481-3.7409 3.581-1.0456 1.1-1.9816 1.988-2.0801 1.9733-0.0985-0.0147-1.1511-1.0755-2.3391-2.3572zm-86.707-11.376c-0.39623-1.6244-1.9369-5.6063-2.2441-5.8-0.20308-0.12803-0.1898-0.27877 0.03692-0.41889 0.46208-0.28558 0.99416 0.0542 0.99416 0.63494 0 0.25206 0.37157 1.5343 0.82572 2.8494 0.45415 1.3151 0.771 2.6484 0.70411 2.9628-0.09446 0.44403-0.16521 0.39304-0.31676-0.22827zm63.107-0.61023c-3.1408-0.69008-7.6042-2.558-11.561-4.8385-1.5187-0.87521-2.9365-1.5913-3.1506-1.5913-0.59344 0-2.188-1.203-4.4882-3.3861-1.144-1.0858-3.4995-3.3241-5.2346-4.974-7.6587-7.2833-13.552-15.989-16.225-23.968-3.9706-11.852 1.9821-17.632 14.1-13.691 1.144 0.37205 3.1161 1.1467 4.3825 1.7215 1.9534 0.88656 2.3596 0.97622 2.6792 0.5912 0.20716-0.24961 0.53644-0.45383 0.73175-0.45383 0.45576 0-5.6473 6.1409-8.6524 8.7061-1.2644 1.0793-2.3846 2.3037-2.4893 2.721-0.11314 0.4508 0.07811 1.3656 0.47135 2.2546 0.66508 1.5035 1.1056 1.9844 1.826 1.9935 1.1247 0.01418 11.011-9.3943 12.688-12.075 0.8526-1.3627 1.4766-1.9041 0.85413-0.74104-0.59014 1.1027-0.36708 1.4319 2.2909 3.381 2.717 1.9924 9.8028 8.6303 11.5 10.773 0.84078 1.0616 0.8999 1.2544 0.43887 1.4313-0.59291 0.22752-2.2476-0.60674-5.0378-2.5399-1.772-1.2277-1.9025-1.2652-3.6757-1.0568-3.3156 0.38968-3.0535 1.1297 1.0196 2.8796 2.7533 1.1828 6.8418 1.9859 8.4366 1.6571 0.78524-0.16187 1.0432 0.08927 3.0966 3.0148 1.232 1.7553 2.9713 4.5609 3.8652 6.2348 0.89386 1.6739 1.7203 3.1385 1.8365 3.2547 0.1162 0.1162 0.75286 0.30641 1.4148 0.4227 0.7684 0.135-0.0691 0.22428-2.3165 0.24694-6.6552 0.0671-14.281 2.0822-21.44 5.6653-2.288 1.1452-4.4364 2.2991-4.7742 2.5644-0.59845 0.46986-0.59899 0.49904-0.02106 1.1376 0.32623 0.36048 1.0518 0.93888 1.6124 1.2853l1.0192 0.62991 3.1618-1.4014c5.6151-2.4888 11.848-4.11 17.242-4.4849 5.0262-0.34933 8.3046-0.45812 7.36-0.24424l-0.96 0.21736 0.11476 3.6021c0.10769 3.3805 0.0619 3.7102-0.74484 5.359-1.8071 3.6935-5.6749 4.9527-11.37 3.7014zm-52.128-63.292c-1.0637-1.2904-1.9522-3.54-1.9522-4.9425 0-0.49764 0.30188-1.1718 0.68423-1.528 0.6535-0.60883 3.149-1.6275 3.9871-1.6275 0.2185 0 0.64159 0.756 0.9402 1.68 0.29861 0.924 0.96482 2.5254 1.4805 3.5586 0.51565 1.0332 0.88951 1.9266 0.83081 1.9853-0.14393 0.14393-4.6469 2.0561-4.8419 2.0561-0.08483 0-0.59271-0.53194-1.1286-1.1821zm61.323-4.6579c-0.87225-0.66237-1.179-1.9096-0.73152-2.974 1.325-3.1512 5.5787-2.2723 5.0478 1.043-0.26673 1.6657-3.0349 2.904-4.3163 1.9309zm31.229-18.657c-0.55853-0.24465-1.1058-0.5909-1.2161-0.76944-0.11034-0.17854 0.46657-0.03863 1.282 0.31092 1.8899 0.81011 1.9396 0.80597 2.9294-0.24446 0.81318-0.86291 0.82128-0.86446 0.41682-0.08-0.7201 1.3966-1.5673 1.5911-3.4122 0.78297z" fill="#eca029"/>
   <path d="m39.577 157.16c-3.5013-1.7496-6.8078-5.8042-6.8078-8.3482 0-1.5338 1.2539-5.4672 1.6959-5.3199 0.20722 0.0691 0.59442 0.83768 0.86045 1.708 0.69887 2.2864 5.841 8.3109 8.9005 10.428 1.6213 1.1218 1.4616 1.5918-0.7282 2.1432-1.8662 0.46992-1.7082 0.49455-3.9208-0.6111zm16.505-6.5885c-4.9941-3.81-11.052-10.503-12.443-13.748-0.3652-0.85197-1.2046-2.3474-1.8652-3.3231-0.66068-0.97575-1.5259-2.5826-1.9227-3.5708l-0.72147-1.7967 1.6996-4.5787c0.93477-2.5183 1.8665-4.6334 2.0705-4.7003 0.20921-0.0686 0.58058 0.54853 0.85171 1.4154 1.7744 5.6727 2.6424 7.6492 4.0478 9.217 0.47332 0.528 1.4203 1.752 2.1043 2.72 3.7942 5.369 9.3239 11.01 14.225 14.511 1.672 1.1945 3.04 2.3231 3.04 2.508 0 0.35736-7.2523 3.1406-8.1835 3.1406-0.30269 0-1.6092-0.80783-2.9034-1.7952zm23.688-9.0306c-7.0918-4.6429-16.299-14.165-22.155-22.914-0.81718-1.2208-1.4888-2.4448-1.4924-2.72-0.0036-0.27524-0.71934-1.7244-1.5905-3.2204-2.2842-3.9225-2.8529-5.239-3.7118-8.5917l-0.7664-2.9917 0.94873-2.1616c2.3729-5.4065 5.1362-10.927 5.3907-10.769 0.15382 0.09506 0.36514 1.4377 0.46959 2.9837 0.10445 1.546 0.55808 4.2475 1.0081 6.0035 0.44999 1.756 0.81816 3.4385 0.81816 3.7389 0 0.76062 1.565 4.3894 2.3929 5.5484 0.37714 0.528 1.3808 2.184 2.2304 3.68 3.5374 6.229 8.4051 12.418 13.93 17.712 3.9096 3.746 7.2981 6.3146 11.788 8.9353 2.6812 1.5651 3.2221 2.0021 2.88 2.3268-0.57503 0.54565-8.5385 3.9856-9.2266 3.9856-0.30388 0-1.615-0.6956-2.9136-1.5458zm64.199-23.302c-2.657-1.7474-7.8103-4.2388-10.72-5.1827-5.6119-1.8205-10.127-2.3428-16.82-1.9457-7.5745 0.44943-13.37 1.8133-19.782 4.6552l-3.1618 1.4014-1.0192-0.62991c-0.56058-0.34646-1.2861-0.92486-1.6124-1.2853-0.57794-0.63861-0.5774-0.66779 0.02106-1.1376 1.4021-1.1008 9.1731-4.7236 12.294-5.7315 5.7599-1.86 9.6751-2.4774 15.681-2.4725 9.1785 7e-3 16.051 1.3852 22.239 4.4587 2.6817 1.3318 6.0851 3.6926 6.3614 4.4126 0.55239 1.4395-0.0433 4.5638-0.9214 4.8327-0.176 0.0539-1.328-0.56491-2.56-1.3751zm-40.32-26.719c-0.88-0.16037-1.9858-0.3513-2.4573-0.42429-0.47153-0.07299-1.4338-0.42678-2.1383-0.7862-2.3298-1.1886-2.1413-1.8034 0.65333-2.1319 1.7706-0.2081 1.8597-0.17938 4.1861 1.3483 1.3074 0.85852 2.6513 1.7325 2.9866 1.9421 0.53955 0.3374 0.48092 0.37902-0.51045 0.36236-0.616-0.01034-1.84-0.15003-2.72-0.31041zm35.934-0.63743c-0.42906-1.1539-0.97107-4.733-0.78872-5.2081 0.29955-0.78063 1.9689-1.3765 5.0362-1.7977 3.3496-0.45992 4.2791-0.1755 4.9942 1.5281 0.27748 0.66112 0.52252 1.913 0.54452 2.7819l0.04 1.5798-3.68 0.58829c-2.024 0.32356-4.1984 0.6727-4.8321 0.77586-0.81485 0.13266-1.1995 0.06003-1.3141-0.24814zm-59.681-2.1318c-0.67342-0.42796-1.7236-3.1883-1.5207-3.9969 0.10472-0.41723 1.2558-1.6656 2.558-2.7742 6.425-5.4697 11.801-11.986 14.329-17.37 1.3736-2.9246 1.5938-3.8488 1.1494-4.8241-1.0638-2.3347-5.8144-3.0324-12.57-1.8462-6.619 1.1622-8.7088 0.83895-11.295-1.7471-2.1282-2.1282-3.1515-5.0856-2.9124-8.4169 0.32736-4.5602 3.0713-7.559 9.3329-10.2 4.7191-1.9902 13.184-3.7243 14.567-2.9841 0.77468 0.4146 1.7138 2.8295 1.5746 4.049-0.09799 0.85853-0.23476 0.94572-1.8657 1.1893-6.5241 0.97443-12.804 2.9215-16.038 4.9727-2.0552 1.3034-3.6903 3.0918-4.3098 4.7139-0.49266 1.29-0.49387 1.4584-0.01574 2.1881 1.0354 1.5802 4.1126 1.8462 9.0488 0.78217 6.8806-1.4832 11.201-0.7562 14.376 2.4193 2.736 2.736 3.7158 6.9056 2.6599 11.319-0.49507 2.0694-2.8291 6.9603-4.1526 8.7017-0.60193 0.792-1.3674 1.872-1.7011 2.4-1.5011 2.3752-11.422 11.688-12.438 11.675-0.21402-0.0026-0.56353-0.11574-0.77668-0.2512zm45.59-12.039c-1.4681-0.52396-2.2852-1.0503-4.19-2.6989-0.81243-0.70315-1.8047-1.5092-2.205-1.7911-0.61727-0.43477-0.65494-0.5592-0.24789-0.81876 0.264-0.16834 1.1439-0.30828 1.9554-0.31098 1.6656-0.0055 2.869 0.68107 5.6621 3.2305 0.9336 0.85214 2.2656 1.7196 2.96 1.9276 0.6944 0.20805 1.2625 0.49948 1.2625 0.64762 0 0.4251-3.8733 0.28648-5.1971-0.18599zm21.564-10.111c-0.76636-0.34775-2.4658-1.6721-3.7765-2.943-2.6063-2.5272-2.5998-2.7423 0.0852-2.7882 0.9198-0.01571 1.6896 0.23119 2.56 0.8211 1.2973 0.87927 5.5646 4.9788 5.5646 5.3458 0 0.46442-3.127 0.15712-4.4334-0.43568zm1.0734-30.033c-2.0666-0.95816-4-2.8544-4-3.9232 0-1.4329 2.4317-5.0772 3.3878-5.0772 0.25367 0 1.2156 0.612 2.1376 1.36s2.36 1.7198 3.1955 2.1594c0.96356 0.50709 1.5191 1.0126 1.5191 1.3823 0 1.0786-3.0856 5.0325-3.9047 5.0035-0.2284-0.0081-1.2793-0.41527-2.3353-0.90488z" fill="#ed215d"/>
  </g>
 </g>
</svg>
