<svg width="100" height="100" version="1.1" viewBox="0 0 26.458 26.458" xmlns="http://www.w3.org/2000/svg">
 <g transform="matrix(-2.5 0 0 2.8572 -166.03 76.369)" style="shape-inside:url(#rect20);white-space:pre" aria-label="">
  <path d="m-70.38-20.306v-0.99218h3.9687v2.9766q0 0.39274-0.31006 0.68213-0.28939 0.31006-0.68213 0.31006h-8.5989q-0.39274 0-0.7028-0.31006-0.28939-0.28939-0.28939-0.68213v-2.9766h3.9687v0.99218q0 0.14469 0.08268 0.24805 0.10335 0.08268 0.24805 0.08268h1.9844q0.14469 0 0.22738-0.08268 0.10335-0.10335 0.10335-0.24805zm2.9766-4.2995q0.39274 0 0.68213 0.31006 0.31006 0.28939 0.31006 0.68213v1.6536h-10.583v-1.6536q0-0.39274 0.28939-0.68213 0.31006-0.31006 0.7028-0.31006h1.6536v-0.99218q0-0.39274 0.28939-0.68213 0.31006-0.31006 0.7028-0.31006h3.3073q0.39274 0 0.68213 0.31006 0.31006 0.28939 0.31006 0.68213v0.99218zm-2.9766 0v-0.66146h-2.6458v0.66146z"/>
 </g>
</svg>
