<svg width="100" height="100" version="1.1" viewBox="0 0 26.458 26.458" xmlns="http://www.w3.org/2000/svg">
 <g>
  <text font-family="'Font Awesome 5 Free'" font-size="10.583px" style="line-height:1.25;shape-inside:url(#rect12);white-space:pre" xml:space="preserve"/>
  <text font-family="'Font Awesome 5 Free'" font-size="10.583px" style="line-height:1.25;shape-inside:url(#rect37);white-space:pre" xml:space="preserve"/>
  <g transform="matrix(-2.5 0 0 2.5 -519.72 -95.91)" style="shape-inside:url(#rect18);white-space:pre" aria-label="ï„">
   <path d="m-212.48 38.653q0.28939 0.28939 0.28939 0.7028 0 0.41341-0.28939 0.7028-0.28938 0.28939-0.70279 0.28939t-0.7028-0.28939-0.28939-0.7028q0-0.41341 0.28939-0.7028t0.7028-0.28939 0.70279 0.28939zm-1.4056 8.5989q0.28939-0.28939 0.7028-0.28939t0.70279 0.28939q0.28939 0.28939 0.28939 0.7028 0 0.41341-0.28939 0.7028-0.28938 0.28939-0.70279 0.28939t-0.7028-0.28939-0.28939-0.7028q0-0.41341 0.28939-0.7028zm4.2995-4.2995q0.28939-0.28939 0.7028-0.28939t0.7028 0.28939 0.28939 0.7028-0.28939 0.7028-0.7028 0.28939-0.7028-0.28939q-0.28938-0.28939-0.28938-0.7028t0.28938-0.7028zm-7.1933 0q0.28939 0.28939 0.28939 0.7028t-0.28939 0.7028-0.7028 0.28939-0.7028-0.28939q-0.28938-0.28939-0.28938-0.7028t0.28938-0.7028q0.28939-0.28939 0.7028-0.28939t0.7028 0.28939zm-0.1447 3.0386q0.28939-0.28939 0.7028-0.28939t0.7028 0.28939 0.28939 0.7028q0 0.41341-0.28939 0.7028t-0.7028 0.28939-0.7028-0.28939q-0.28938-0.28939-0.28938-0.7028 0-0.41341 0.28938-0.7028zm6.0771 0q0.28939-0.28939 0.7028-0.28939t0.7028 0.28939 0.28939 0.7028q0 0.41341-0.28939 0.7028t-0.7028 0.28939-0.7028-0.28939q-0.28938-0.28939-0.28938-0.7028 0-0.41341 0.28938-0.7028zm-6.0771-6.0771q0.28939-0.28939 0.7028-0.28939t0.7028 0.28939 0.28939 0.7028-0.28939 0.7028q-0.28939 0.28939-0.7028 0.28939t-0.7028-0.28939q-0.28938-0.28939-0.28938-0.7028t0.28938-0.7028z"/>
  </g>
 </g>
</svg>
