<svg version="1.1" viewBox="0 0 150 150" xmlns="http://www.w3.org/2000/svg">
 <g>
  <path d="m45.4 99.79c-17.147-1.6351-32.301-11.952-39.991-27.225-7.3022-14.504-7.2072-31.212 0.25949-45.622 4.7287-9.1259 12.146-16.544 21.271-21.273 14.408-7.4675 31.115-7.5625 45.617-0.25952 16.719 8.419 27.443 25.842 27.443 44.586 0 16.52-8.4209 32.289-22.172 41.518-9.4138 6.318-21.26 9.3413-32.428 8.2763zm8.107-4.4723c8.317-0.72536 15.782-3.3829 22.367-7.9628 10.085-7.0137 16.875-17.705 18.95-29.837 1.972-11.534-0.76232-23.749-7.4783-33.408-7.013-10.086-17.704-16.877-29.834-18.951-11.533-1.9722-23.747 0.7624-33.405 7.479-10.085 7.0137-16.875 17.705-18.95 29.837-1.972 11.534 0.76232 23.749 7.4782 33.408 9.2346 13.281 25.073 20.813 40.871 19.435zm-8.0093-35.065v-10.257h-4.493v-3.2236c0-1.773-3.66e-4 -3.2895-7.33e-4 -3.3701-3.66e-4 -0.08059 1.0105-0.1713 2.2465-0.20157l2.2473-0.05504v-3.1101c0-3.4981 0.18006-4.6466 1.0019-6.3905 0.88098-1.8694 2.5171-3.0774 5.0059-3.696 0.6976-0.17338 2.7678-0.32565 5.469-0.40226l4.3465-0.12327v6.8522l-2.6994 0.07414c-3.9499 0.10848-4.1347 0.31011-4.1367 4.5125l-0.0011 2.2956h3.4186c2.5439 0 3.4186 0.06047 3.4186 0.23633 0 0.3182-0.56541 5.1683-0.69558 5.9666l-0.10352 0.63495h-6.0381v20.514h-8.9861z" stroke-width=".19536" style="mix-blend-mode:normal"/>
 </g>
</svg>
