<svg class="svg-inline--fa fa-cog fa-w-16" aria-hidden="true" data-icon="cog" data-prefix="fas" focusable="false" role="img" version="1.1" viewBox="0 0 50 50" xmlns="http://www.w3.org/2000/svg">
 <path d="m49.361 31.008-4.4859-2.4798c0.45281-2.3387 0.45281-4.7379 0-7.0766l4.4859-2.4798c0.51599-0.28226 0.74765-0.86693 0.57917-1.4113-1.1689-3.5887-3.1591-6.8347-5.7601-9.5363-0.40015-0.4133-1.053-0.51411-1.5585-0.23185l-4.4859 2.4798c-1.8849-1.5524-4.0542-2.752-6.4024-3.5383v-4.9496c0-0.56451-0.41068-1.0585-0.98985-1.1794-3.8646-0.82661-7.824-0.78629-11.499 0-0.57917 0.12097-0.98985 0.61492-0.98985 1.1794v4.9597c-2.3377 0.79637-4.507 1.996-6.4024 3.5383l-4.4754-2.4798c-0.51599-0.28226-1.1583-0.19153-1.5585 0.23185-2.601 2.6915-4.5912 5.9375-5.7601 9.5363-0.17902 0.54435 0.063182 1.129 0.57917 1.4113l4.4859 2.4798c-0.4528 2.3387-0.4528 4.7379 0 7.0766l-4.4859 2.4798c-0.51598 0.28226-0.74765 0.86693-0.57917 1.4113 1.1689 3.5887 3.1591 6.8347 5.7601 9.5363 0.40015 0.4133 1.053 0.51411 1.5585 0.23185l4.4859-2.4798c1.8849 1.5524 4.0542 2.752 6.4024 3.5383v4.9597c0 0.56451 0.41069 1.0585 0.98985 1.1794 3.8646 0.82661 7.824 0.78629 11.499 0 0.57917-0.12097 0.98985-0.61492 0.98985-1.1794v-4.9597c2.3377-0.79637 4.507-1.996 6.4024-3.5383l4.4859 2.4798c0.51599 0.28226 1.1583 0.19153 1.5585-0.23185 2.601-2.6915 4.5912-5.9375 5.7601-9.5363 0.15796-0.55443-0.07371-1.1391-0.5897-1.4214zm-24.367 2.0464c-4.6439 0-8.4242-3.6189-8.4242-8.0645 0-4.4455 3.7804-8.0645 8.4242-8.0645 4.6439 0 8.4242 3.6189 8.4242 8.0645 0 4.4455-3.7804 8.0645-8.4242 8.0645z" fill="currentColor" stroke-width=".10303"/>
</svg>
