<svg width="100" height="100" version="1.1" viewBox="0 0 26.458 26.458" xmlns="http://www.w3.org/2000/svg">
 <g fill="#808080">
  <g transform="scale(1.0328 .96825)" fill="#808080" stroke-width=".68315" aria-label="">
   <path d="m24.871 15.318q0.3736 1.7613-0.48034 3.3624 0.26686 1.9214-0.90731 3.5759-0.05337 1.4944-0.69383 2.6152-0.58708 1.1208-1.9747 1.7613-1.3343 0.69383-3.3624 0.69383-0.16011 0-0.58708 0t-0.58708 0q-2.4017 0-4.2697-0.53371-1.8146-0.53371-3.0955-1.0674-1.2275-0.53371-2.1349-0.53371-0.16011 0.53371-0.64046 0.90731-0.42697 0.3736-1.0141 0.3736h-3.4158q-0.69383 0-1.2275-0.53371-0.48034-0.48034-0.48034-1.1742v-12.809q0-0.69383 0.48034-1.1742 0.53371-0.53371 1.2275-0.53371h5.2838q0.42697-0.3736 1.0674-1.2275 0.64046-0.85394 1.3343-1.7613 0.7472-0.96068 1.2809-1.441 0.16011-0.21349 0.48034-1.7613 0.32023-1.5478 1.0674-2.7753 0.80057-1.2809 2.2416-1.2809 2.4017 0 3.736 1.3877 1.3877 1.3877 1.3877 4.2163 0 1.2275-0.48034 2.4551h1.9214q1.2809 0 2.3483 0.69383 1.0674 0.64046 1.6545 1.7079 0.58708 1.0141 0.58708 2.1882 0 1.3877-0.7472 2.6686zm-3.2556 2.882q0.80057-0.80057 0.80057-1.868 0.05337-1.1208-0.53371-1.6545 0.3736 0 0.7472-0.64046 0.42697-0.64046 0.42697-1.3877t-0.58708-1.3877q-0.58708-0.64046-1.441-0.64046h-5.5506q0-0.96068 0.7472-2.4551 0.80057-1.5478 0.80057-2.5618 0-0.53371-0.05337-0.80057 0-0.32023-0.16011-0.80057-0.10674-0.48034-0.3736-0.7472-0.21348-0.26686-0.7472-0.48034-0.48034-0.21349-1.2275-0.21349-0.42697 0.42697-0.80057 2.3483-0.3736 1.868-1.2275 2.7219-0.3736 0.3736-1.1208 1.3877-0.7472 0.96068-1.3343 1.7613-0.58708 0.7472-1.3343 1.3877-0.69383 0.64046-1.2275 0.64046h-0.58708v9.9271q1.3343 0 4.2163 1.0141 2.9354 1.0141 4.9635 1.0141h1.9747q3.4158 0 2.882-3.5225 0.64046-0.3736 0.90731-1.2809 0.26686-0.90731-0.16011-1.7613zm-17.292 5.7641q0.3736-0.3736 0.3736-0.90731t-0.3736-0.90731-0.90731-0.3736-0.90731 0.3736-0.3736 0.90731 0.3736 0.90731 0.90731 0.3736 0.90731-0.3736z" fill="#808080" stroke-width=".68315"/>
  </g>
 </g>
</svg>
